<svg width="383" height="72" viewBox="0 0 383 72" fill="none" xmlns="http://www.w3.org/2000/svg">
<g filter="url(#filter0_d_414_286)">
<rect x="4" y="3" width="375" height="64" fill="#FAFAFA"/>
</g>
<line x1="129.5" y1="9.5376" x2="129.5" y2="61.6697" stroke="#551A8B" stroke-linecap="round"/>
<line x1="253.5" y1="61.6699" x2="253.5" y2="9.53785" stroke="#551A8B" stroke-linecap="round"/>
<path d="M154.103 52.7549H152.393V52.0649H154.103C154.434 52.0649 154.702 52.0122 154.907 51.9067C155.112 51.8013 155.261 51.6548 155.355 51.4673C155.452 51.2798 155.5 51.0659 155.5 50.8257C155.5 50.606 155.452 50.3994 155.355 50.2061C155.261 50.0127 155.112 49.8574 154.907 49.7402C154.702 49.6201 154.434 49.5601 154.103 49.5601H152.591V55.2642H151.743V48.8657H154.103C154.586 48.8657 154.995 48.9492 155.329 49.1162C155.663 49.2832 155.916 49.5146 156.089 49.8105C156.262 50.1035 156.348 50.439 156.348 50.8169C156.348 51.2271 156.262 51.5771 156.089 51.8672C155.916 52.1572 155.663 52.3784 155.329 52.5308C154.995 52.6802 154.586 52.7549 154.103 52.7549ZM158.11 51.2563V55.2642H157.297V50.5093H158.088L158.11 51.2563ZM159.596 50.4829L159.591 51.2388C159.524 51.2241 159.459 51.2153 159.398 51.2124C159.339 51.2065 159.272 51.2036 159.196 51.2036C159.008 51.2036 158.843 51.2329 158.699 51.2915C158.556 51.3501 158.434 51.4321 158.334 51.5376C158.235 51.6431 158.156 51.769 158.097 51.9155C158.042 52.0591 158.005 52.2173 157.987 52.3901L157.759 52.522C157.759 52.2349 157.787 51.9653 157.842 51.7134C157.901 51.4614 157.99 51.2388 158.11 51.0454C158.23 50.8491 158.383 50.6968 158.567 50.5884C158.755 50.4771 158.978 50.4214 159.235 50.4214C159.294 50.4214 159.361 50.4287 159.438 50.4434C159.514 50.4551 159.566 50.4683 159.596 50.4829ZM160.044 52.9395V52.8384C160.044 52.4956 160.094 52.1777 160.193 51.8848C160.293 51.5889 160.437 51.3325 160.624 51.1157C160.812 50.896 161.039 50.7261 161.305 50.606C161.572 50.4829 161.871 50.4214 162.202 50.4214C162.536 50.4214 162.836 50.4829 163.103 50.606C163.372 50.7261 163.601 50.896 163.788 51.1157C163.979 51.3325 164.124 51.5889 164.223 51.8848C164.323 52.1777 164.373 52.4956 164.373 52.8384V52.9395C164.373 53.2822 164.323 53.6001 164.223 53.8931C164.124 54.186 163.979 54.4424 163.788 54.6621C163.601 54.8789 163.374 55.0488 163.107 55.1719C162.843 55.292 162.544 55.3521 162.21 55.3521C161.876 55.3521 161.576 55.292 161.31 55.1719C161.043 55.0488 160.814 54.8789 160.624 54.6621C160.437 54.4424 160.293 54.186 160.193 53.8931C160.094 53.6001 160.044 53.2822 160.044 52.9395ZM160.857 52.8384V52.9395C160.857 53.1768 160.885 53.4009 160.94 53.6118C160.996 53.8198 161.08 54.0044 161.191 54.1655C161.305 54.3267 161.447 54.4541 161.617 54.5479C161.787 54.6387 161.985 54.6841 162.21 54.6841C162.433 54.6841 162.628 54.6387 162.795 54.5479C162.965 54.4541 163.105 54.3267 163.217 54.1655C163.328 54.0044 163.412 53.8198 163.467 53.6118C163.526 53.4009 163.555 53.1768 163.555 52.9395V52.8384C163.555 52.604 163.526 52.3828 163.467 52.1748C163.412 51.9639 163.327 51.7778 163.212 51.6167C163.101 51.4526 162.96 51.3237 162.791 51.23C162.624 51.1362 162.427 51.0894 162.202 51.0894C161.979 51.0894 161.783 51.1362 161.613 51.23C161.446 51.3237 161.305 51.4526 161.191 51.6167C161.08 51.7778 160.996 51.9639 160.94 52.1748C160.885 52.3828 160.857 52.604 160.857 52.8384ZM168.473 50.5093H169.211V55.1631C169.211 55.582 169.126 55.9395 168.956 56.2354C168.786 56.5312 168.549 56.7554 168.244 56.9077C167.942 57.063 167.594 57.1406 167.198 57.1406C167.034 57.1406 166.841 57.1143 166.618 57.0615C166.398 57.0117 166.182 56.9253 165.968 56.8022C165.757 56.6821 165.58 56.5195 165.436 56.3145L165.862 55.8311C166.062 56.0713 166.27 56.2383 166.486 56.332C166.706 56.4258 166.923 56.4727 167.137 56.4727C167.395 56.4727 167.617 56.4243 167.805 56.3276C167.992 56.231 168.137 56.0874 168.24 55.897C168.345 55.7095 168.398 55.478 168.398 55.2026V51.5552L168.473 50.5093ZM165.199 52.9395V52.8472C165.199 52.4839 165.241 52.1543 165.326 51.8584C165.414 51.5596 165.539 51.3032 165.7 51.0894C165.864 50.8755 166.062 50.7114 166.293 50.5972C166.524 50.48 166.785 50.4214 167.075 50.4214C167.374 50.4214 167.635 50.4741 167.857 50.5796C168.083 50.6821 168.273 50.833 168.429 51.0322C168.587 51.2285 168.711 51.4658 168.802 51.7441C168.893 52.0225 168.956 52.3374 168.991 52.689V53.0933C168.959 53.4419 168.896 53.7554 168.802 54.0337C168.711 54.312 168.587 54.5493 168.429 54.7456C168.273 54.9419 168.083 55.0928 167.857 55.1982C167.632 55.3008 167.368 55.3521 167.066 55.3521C166.782 55.3521 166.524 55.292 166.293 55.1719C166.064 55.0518 165.868 54.8833 165.704 54.6665C165.54 54.4497 165.414 54.1948 165.326 53.9019C165.241 53.606 165.199 53.2852 165.199 52.9395ZM166.012 52.8472V52.9395C166.012 53.1768 166.035 53.3994 166.082 53.6074C166.132 53.8154 166.207 53.9985 166.306 54.1567C166.409 54.3149 166.539 54.4395 166.697 54.5303C166.855 54.6182 167.044 54.6621 167.264 54.6621C167.534 54.6621 167.756 54.605 167.932 54.4907C168.108 54.3765 168.247 54.2256 168.35 54.0381C168.455 53.8506 168.537 53.647 168.596 53.4272V52.3682C168.563 52.207 168.514 52.0518 168.446 51.9023C168.382 51.75 168.297 51.6152 168.191 51.498C168.089 51.3779 167.961 51.2827 167.809 51.2124C167.657 51.1421 167.478 51.1069 167.273 51.1069C167.05 51.1069 166.858 51.1538 166.697 51.2476C166.539 51.3384 166.409 51.4644 166.306 51.6255C166.207 51.7837 166.132 51.9683 166.082 52.1792C166.035 52.3872 166.012 52.6099 166.012 52.8472ZM171.259 51.2563V55.2642H170.446V50.5093H171.237L171.259 51.2563ZM172.744 50.4829L172.74 51.2388C172.672 51.2241 172.608 51.2153 172.546 51.2124C172.488 51.2065 172.42 51.2036 172.344 51.2036C172.157 51.2036 171.991 51.2329 171.848 51.2915C171.704 51.3501 171.583 51.4321 171.483 51.5376C171.383 51.6431 171.304 51.769 171.246 51.9155C171.19 52.0591 171.153 52.2173 171.136 52.3901L170.907 52.522C170.907 52.2349 170.935 51.9653 170.991 51.7134C171.049 51.4614 171.139 51.2388 171.259 51.0454C171.379 50.8491 171.531 50.6968 171.716 50.5884C171.903 50.4771 172.126 50.4214 172.384 50.4214C172.442 50.4214 172.51 50.4287 172.586 50.4434C172.662 50.4551 172.715 50.4683 172.744 50.4829ZM176.124 54.4512V52.0034C176.124 51.8159 176.085 51.6533 176.009 51.5156C175.936 51.375 175.825 51.2666 175.675 51.1904C175.526 51.1143 175.341 51.0762 175.122 51.0762C174.917 51.0762 174.736 51.1113 174.581 51.1816C174.429 51.252 174.309 51.3442 174.221 51.4585C174.136 51.5728 174.093 51.6958 174.093 51.8276H173.28C173.28 51.6577 173.324 51.4893 173.412 51.3223C173.5 51.1553 173.626 51.0044 173.79 50.8696C173.957 50.7319 174.156 50.6235 174.388 50.5444C174.622 50.4624 174.883 50.4214 175.17 50.4214C175.516 50.4214 175.82 50.48 176.084 50.5972C176.351 50.7144 176.559 50.8916 176.708 51.1289C176.86 51.3633 176.937 51.6577 176.937 52.0122V54.2271C176.937 54.3853 176.95 54.5537 176.976 54.7324C177.005 54.9111 177.048 55.0649 177.104 55.1938V55.2642H176.255C176.214 55.1704 176.182 55.0459 176.159 54.8906C176.135 54.7324 176.124 54.5859 176.124 54.4512ZM176.264 52.3813L176.273 52.9526H175.451C175.22 52.9526 175.013 52.9717 174.832 53.0098C174.65 53.0449 174.498 53.0991 174.375 53.1724C174.251 53.2456 174.158 53.3379 174.093 53.4492C174.029 53.5576 173.997 53.6851 173.997 53.8315C173.997 53.981 174.03 54.1172 174.098 54.2402C174.165 54.3633 174.266 54.4614 174.401 54.5347C174.539 54.605 174.707 54.6401 174.906 54.6401C175.155 54.6401 175.375 54.5874 175.565 54.4819C175.756 54.3765 175.907 54.2476 176.018 54.0952C176.132 53.9429 176.194 53.7949 176.203 53.6514L176.55 54.0425C176.529 54.1655 176.474 54.3018 176.383 54.4512C176.292 54.6006 176.17 54.7441 176.018 54.8818C175.869 55.0166 175.69 55.1294 175.482 55.2202C175.277 55.3081 175.045 55.3521 174.788 55.3521C174.465 55.3521 174.183 55.2891 173.939 55.1631C173.699 55.0371 173.512 54.8687 173.377 54.6577C173.245 54.4438 173.179 54.2051 173.179 53.9414C173.179 53.6865 173.229 53.4624 173.329 53.269C173.428 53.0728 173.572 52.9102 173.759 52.7812C173.947 52.6494 174.172 52.5498 174.436 52.4824C174.7 52.415 174.994 52.3813 175.319 52.3813H176.264ZM179.024 51.4541V55.2642H178.207V50.5093H178.98L179.024 51.4541ZM178.857 52.7065L178.479 52.6934C178.482 52.3682 178.524 52.0679 178.606 51.7925C178.688 51.5142 178.81 51.2725 178.971 51.0674C179.132 50.8623 179.333 50.7041 179.573 50.5928C179.813 50.4785 180.092 50.4214 180.408 50.4214C180.631 50.4214 180.836 50.4536 181.023 50.5181C181.211 50.5796 181.374 50.6777 181.511 50.8125C181.649 50.9473 181.756 51.1201 181.832 51.3311C181.908 51.542 181.946 51.7969 181.946 52.0957V55.2642H181.133V52.1353C181.133 51.8862 181.091 51.687 181.006 51.5376C180.924 51.3882 180.807 51.2798 180.654 51.2124C180.502 51.1421 180.323 51.1069 180.118 51.1069C179.878 51.1069 179.677 51.1494 179.516 51.2344C179.355 51.3193 179.226 51.4365 179.129 51.5859C179.033 51.7354 178.962 51.9067 178.918 52.1001C178.877 52.2905 178.857 52.4927 178.857 52.7065ZM181.938 52.2583L181.393 52.4253C181.396 52.1646 181.438 51.9141 181.52 51.6738C181.605 51.4336 181.727 51.2197 181.885 51.0322C182.046 50.8447 182.244 50.6968 182.478 50.5884C182.712 50.4771 182.98 50.4214 183.282 50.4214C183.537 50.4214 183.763 50.4551 183.959 50.5225C184.158 50.5898 184.325 50.6938 184.46 50.8345C184.598 50.9722 184.702 51.1494 184.772 51.3662C184.842 51.583 184.877 51.8408 184.877 52.1396V55.2642H184.06V52.1309C184.06 51.8643 184.018 51.6577 183.933 51.5112C183.851 51.3618 183.733 51.2578 183.581 51.1992C183.432 51.1377 183.253 51.1069 183.045 51.1069C182.866 51.1069 182.708 51.1377 182.57 51.1992C182.433 51.2607 182.317 51.3457 182.223 51.4541C182.129 51.5596 182.058 51.6812 182.008 51.8188C181.961 51.9565 181.938 52.103 181.938 52.2583ZM188.912 54.4512V52.0034C188.912 51.8159 188.874 51.6533 188.797 51.5156C188.724 51.375 188.613 51.2666 188.463 51.1904C188.314 51.1143 188.129 51.0762 187.91 51.0762C187.705 51.0762 187.524 51.1113 187.369 51.1816C187.217 51.252 187.097 51.3442 187.009 51.4585C186.924 51.5728 186.881 51.6958 186.881 51.8276H186.068C186.068 51.6577 186.112 51.4893 186.2 51.3223C186.288 51.1553 186.414 51.0044 186.578 50.8696C186.745 50.7319 186.944 50.6235 187.176 50.5444C187.41 50.4624 187.671 50.4214 187.958 50.4214C188.304 50.4214 188.608 50.48 188.872 50.5972C189.139 50.7144 189.347 50.8916 189.496 51.1289C189.648 51.3633 189.725 51.6577 189.725 52.0122V54.2271C189.725 54.3853 189.738 54.5537 189.764 54.7324C189.793 54.9111 189.836 55.0649 189.892 55.1938V55.2642H189.043C189.002 55.1704 188.97 55.0459 188.947 54.8906C188.923 54.7324 188.912 54.5859 188.912 54.4512ZM189.052 52.3813L189.061 52.9526H188.239C188.008 52.9526 187.801 52.9717 187.62 53.0098C187.438 53.0449 187.286 53.0991 187.163 53.1724C187.04 53.2456 186.946 53.3379 186.881 53.4492C186.817 53.5576 186.785 53.6851 186.785 53.8315C186.785 53.981 186.818 54.1172 186.886 54.2402C186.953 54.3633 187.054 54.4614 187.189 54.5347C187.327 54.605 187.495 54.6401 187.694 54.6401C187.943 54.6401 188.163 54.5874 188.354 54.4819C188.544 54.3765 188.695 54.2476 188.806 54.0952C188.92 53.9429 188.982 53.7949 188.991 53.6514L189.338 54.0425C189.317 54.1655 189.262 54.3018 189.171 54.4512C189.08 54.6006 188.958 54.7441 188.806 54.8818C188.657 55.0166 188.478 55.1294 188.27 55.2202C188.065 55.3081 187.833 55.3521 187.576 55.3521C187.253 55.3521 186.971 55.2891 186.728 55.1631C186.487 55.0371 186.3 54.8687 186.165 54.6577C186.033 54.4438 185.967 54.2051 185.967 53.9414C185.967 53.6865 186.017 53.4624 186.117 53.269C186.216 53.0728 186.36 52.9102 186.547 52.7812C186.735 52.6494 186.96 52.5498 187.224 52.4824C187.488 52.415 187.782 52.3813 188.107 52.3813H189.052ZM187.598 49.8062L188.45 48.5142H189.43L188.252 49.8062H187.598ZM195.227 50.5093V51.1333H192.656V50.5093H195.227ZM193.526 49.3535H194.339V54.0864C194.339 54.2476 194.364 54.3691 194.414 54.4512C194.463 54.5332 194.528 54.5874 194.607 54.6138C194.686 54.6401 194.771 54.6533 194.862 54.6533C194.929 54.6533 195 54.6475 195.073 54.6357C195.149 54.6211 195.206 54.6094 195.244 54.6006L195.249 55.2642C195.184 55.2847 195.099 55.3037 194.994 55.3213C194.891 55.3418 194.767 55.3521 194.62 55.3521C194.421 55.3521 194.238 55.3125 194.071 55.2334C193.904 55.1543 193.771 55.0225 193.671 54.8379C193.574 54.6504 193.526 54.3984 193.526 54.082V49.3535ZM199.089 54.1655V50.5093H199.907V55.2642H199.129L199.089 54.1655ZM199.243 53.1636L199.582 53.1548C199.582 53.4712 199.548 53.7642 199.48 54.0337C199.416 54.3003 199.311 54.5317 199.164 54.728C199.018 54.9243 198.826 55.0781 198.588 55.1895C198.351 55.2979 198.062 55.3521 197.723 55.3521C197.491 55.3521 197.279 55.3184 197.085 55.251C196.895 55.1836 196.731 55.0796 196.593 54.939C196.456 54.7983 196.349 54.6152 196.272 54.3896C196.199 54.1641 196.163 53.8931 196.163 53.5767V50.5093H196.976V53.5854C196.976 53.7993 196.999 53.9766 197.046 54.1172C197.096 54.2549 197.162 54.3647 197.244 54.4468C197.329 54.5259 197.422 54.5815 197.525 54.6138C197.63 54.646 197.739 54.6621 197.85 54.6621C198.196 54.6621 198.47 54.5962 198.672 54.4644C198.874 54.3296 199.019 54.1494 199.107 53.9238C199.198 53.6953 199.243 53.4419 199.243 53.1636ZM204.191 51.4233V57.0923H203.374V50.5093H204.121L204.191 51.4233ZM207.395 52.8472V52.9395C207.395 53.2852 207.354 53.606 207.272 53.9019C207.19 54.1948 207.07 54.4497 206.912 54.6665C206.756 54.8833 206.564 55.0518 206.336 55.1719C206.107 55.292 205.845 55.3521 205.549 55.3521C205.248 55.3521 204.981 55.3022 204.75 55.2026C204.518 55.103 204.322 54.958 204.161 54.7676C204 54.5771 203.871 54.3486 203.774 54.082C203.68 53.8154 203.616 53.5151 203.581 53.1812V52.689C203.616 52.3374 203.682 52.0225 203.778 51.7441C203.875 51.4658 204.002 51.2285 204.161 51.0322C204.322 50.833 204.517 50.6821 204.745 50.5796C204.974 50.4741 205.237 50.4214 205.536 50.4214C205.835 50.4214 206.1 50.48 206.332 50.5972C206.563 50.7114 206.758 50.8755 206.916 51.0894C207.074 51.3032 207.193 51.5596 207.272 51.8584C207.354 52.1543 207.395 52.4839 207.395 52.8472ZM206.578 52.9395V52.8472C206.578 52.6099 206.553 52.3872 206.503 52.1792C206.453 51.9683 206.375 51.7837 206.27 51.6255C206.167 51.4644 206.036 51.3384 205.875 51.2476C205.713 51.1538 205.521 51.1069 205.299 51.1069C205.094 51.1069 204.915 51.1421 204.763 51.2124C204.613 51.2827 204.486 51.3779 204.38 51.498C204.275 51.6152 204.188 51.75 204.121 51.9023C204.057 52.0518 204.008 52.207 203.976 52.3682V53.5063C204.035 53.7114 204.117 53.9048 204.222 54.0864C204.328 54.2651 204.468 54.4102 204.644 54.5215C204.82 54.6299 205.041 54.6841 205.308 54.6841C205.527 54.6841 205.716 54.6387 205.875 54.5479C206.036 54.4541 206.167 54.3267 206.27 54.1655C206.375 54.0044 206.453 53.8198 206.503 53.6118C206.553 53.4009 206.578 53.1768 206.578 52.9395ZM210.405 55.3521C210.074 55.3521 209.774 55.2964 209.504 55.1851C209.238 55.0708 209.008 54.9111 208.814 54.7061C208.624 54.501 208.478 54.2578 208.375 53.9766C208.272 53.6953 208.221 53.3877 208.221 53.0537V52.8691C208.221 52.4824 208.278 52.1382 208.393 51.8364C208.507 51.5317 208.662 51.2739 208.858 51.063C209.055 50.8521 209.277 50.6924 209.526 50.584C209.775 50.4756 210.033 50.4214 210.3 50.4214C210.64 50.4214 210.933 50.48 211.179 50.5972C211.428 50.7144 211.631 50.8784 211.79 51.0894C211.948 51.2974 212.065 51.5435 212.141 51.8276C212.217 52.1089 212.255 52.4165 212.255 52.7505V53.1152H208.705V52.4517H211.442V52.3901C211.431 52.1792 211.387 51.9741 211.311 51.7749C211.237 51.5757 211.12 51.4116 210.959 51.2827C210.798 51.1538 210.578 51.0894 210.3 51.0894C210.115 51.0894 209.945 51.1289 209.79 51.208C209.635 51.2842 209.501 51.3984 209.39 51.5508C209.279 51.7031 209.192 51.8892 209.131 52.1089C209.069 52.3286 209.039 52.582 209.039 52.8691V53.0537C209.039 53.2793 209.069 53.4917 209.131 53.6909C209.195 53.8872 209.288 54.0601 209.408 54.2095C209.531 54.3589 209.679 54.4761 209.852 54.561C210.027 54.646 210.227 54.6885 210.449 54.6885C210.736 54.6885 210.979 54.6299 211.179 54.5127C211.378 54.3955 211.552 54.2388 211.702 54.0425L212.194 54.4336C212.091 54.5889 211.961 54.7368 211.803 54.8774C211.645 55.0181 211.45 55.1323 211.218 55.2202C210.99 55.3081 210.719 55.3521 210.405 55.3521ZM216.202 54.3413V48.5142H217.019V55.2642H216.272L216.202 54.3413ZM213.002 52.9395V52.8472C213.002 52.4839 213.046 52.1543 213.134 51.8584C213.225 51.5596 213.353 51.3032 213.517 51.0894C213.684 50.8755 213.881 50.7114 214.11 50.5972C214.341 50.48 214.599 50.4214 214.883 50.4214C215.182 50.4214 215.443 50.4741 215.666 50.5796C215.891 50.6821 216.082 50.833 216.237 51.0322C216.395 51.2285 216.52 51.4658 216.61 51.7441C216.701 52.0225 216.764 52.3374 216.799 52.689V53.0933C216.767 53.4419 216.704 53.7554 216.61 54.0337C216.52 54.312 216.395 54.5493 216.237 54.7456C216.082 54.9419 215.891 55.0928 215.666 55.1982C215.44 55.3008 215.176 55.3521 214.875 55.3521C214.596 55.3521 214.341 55.292 214.11 55.1719C213.881 55.0518 213.684 54.8833 213.517 54.6665C213.353 54.4497 213.225 54.1948 213.134 53.9019C213.046 53.606 213.002 53.2852 213.002 52.9395ZM213.82 52.8472V52.9395C213.82 53.1768 213.843 53.3994 213.89 53.6074C213.94 53.8154 214.016 53.9985 214.119 54.1567C214.221 54.3149 214.352 54.4395 214.51 54.5303C214.668 54.6182 214.857 54.6621 215.077 54.6621C215.346 54.6621 215.567 54.605 215.74 54.4907C215.916 54.3765 216.057 54.2256 216.162 54.0381C216.268 53.8506 216.35 53.647 216.408 53.4272V52.3682C216.373 52.207 216.322 52.0518 216.254 51.9023C216.19 51.75 216.105 51.6152 216 51.498C215.897 51.3779 215.77 51.2827 215.617 51.2124C215.468 51.1421 215.291 51.1069 215.085 51.1069C214.863 51.1069 214.671 51.1538 214.51 51.2476C214.352 51.3384 214.221 51.4644 214.119 51.6255C214.016 51.7837 213.94 51.9683 213.89 52.1792C213.843 52.3872 213.82 52.6099 213.82 52.8472ZM219.168 50.5093V55.2642H218.351V50.5093H219.168ZM218.289 49.248C218.289 49.1162 218.329 49.0049 218.408 48.9141C218.49 48.8232 218.61 48.7778 218.768 48.7778C218.923 48.7778 219.042 48.8232 219.124 48.9141C219.209 49.0049 219.251 49.1162 219.251 49.248C219.251 49.374 219.209 49.4824 219.124 49.5732C219.042 49.6611 218.923 49.7051 218.768 49.7051C218.61 49.7051 218.49 49.6611 218.408 49.5732C218.329 49.4824 218.289 49.374 218.289 49.248ZM223.47 54.3413V48.5142H224.288V55.2642H223.541L223.47 54.3413ZM220.271 52.9395V52.8472C220.271 52.4839 220.315 52.1543 220.403 51.8584C220.494 51.5596 220.621 51.3032 220.785 51.0894C220.952 50.8755 221.15 50.7114 221.378 50.5972C221.61 50.48 221.868 50.4214 222.152 50.4214C222.451 50.4214 222.711 50.4741 222.934 50.5796C223.16 50.6821 223.35 50.833 223.505 51.0322C223.664 51.2285 223.788 51.4658 223.879 51.7441C223.97 52.0225 224.033 52.3374 224.068 52.689V53.0933C224.036 53.4419 223.973 53.7554 223.879 54.0337C223.788 54.312 223.664 54.5493 223.505 54.7456C223.35 54.9419 223.16 55.0928 222.934 55.1982C222.708 55.3008 222.445 55.3521 222.143 55.3521C221.865 55.3521 221.61 55.292 221.378 55.1719C221.15 55.0518 220.952 54.8833 220.785 54.6665C220.621 54.4497 220.494 54.1948 220.403 53.9019C220.315 53.606 220.271 53.2852 220.271 52.9395ZM221.088 52.8472V52.9395C221.088 53.1768 221.112 53.3994 221.159 53.6074C221.208 53.8154 221.285 53.9985 221.387 54.1567C221.49 54.3149 221.62 54.4395 221.778 54.5303C221.937 54.6182 222.125 54.6621 222.345 54.6621C222.615 54.6621 222.836 54.605 223.009 54.4907C223.185 54.3765 223.325 54.2256 223.431 54.0381C223.536 53.8506 223.618 53.647 223.677 53.4272V52.3682C223.642 52.207 223.59 52.0518 223.523 51.9023C223.458 51.75 223.374 51.6152 223.268 51.498C223.166 51.3779 223.038 51.2827 222.886 51.2124C222.736 51.1421 222.559 51.1069 222.354 51.1069C222.131 51.1069 221.939 51.1538 221.778 51.2476C221.62 51.3384 221.49 51.4644 221.387 51.6255C221.285 51.7837 221.208 51.9683 221.159 52.1792C221.112 52.3872 221.088 52.6099 221.088 52.8472ZM225.338 52.9395V52.8384C225.338 52.4956 225.388 52.1777 225.487 51.8848C225.587 51.5889 225.73 51.3325 225.918 51.1157C226.105 50.896 226.333 50.7261 226.599 50.606C226.866 50.4829 227.165 50.4214 227.496 50.4214C227.83 50.4214 228.13 50.4829 228.396 50.606C228.666 50.7261 228.895 50.896 229.082 51.1157C229.272 51.3325 229.417 51.5889 229.517 51.8848C229.617 52.1777 229.667 52.4956 229.667 52.8384V52.9395C229.667 53.2822 229.617 53.6001 229.517 53.8931C229.417 54.186 229.272 54.4424 229.082 54.6621C228.895 54.8789 228.667 55.0488 228.401 55.1719C228.137 55.292 227.838 55.3521 227.504 55.3521C227.17 55.3521 226.87 55.292 226.604 55.1719C226.337 55.0488 226.108 54.8789 225.918 54.6621C225.73 54.4424 225.587 54.186 225.487 53.8931C225.388 53.6001 225.338 53.2822 225.338 52.9395ZM226.151 52.8384V52.9395C226.151 53.1768 226.179 53.4009 226.234 53.6118C226.29 53.8198 226.374 54.0044 226.485 54.1655C226.599 54.3267 226.741 54.4541 226.911 54.5479C227.081 54.6387 227.279 54.6841 227.504 54.6841C227.727 54.6841 227.922 54.6387 228.089 54.5479C228.259 54.4541 228.399 54.3267 228.511 54.1655C228.622 54.0044 228.706 53.8198 228.761 53.6118C228.82 53.4009 228.849 53.1768 228.849 52.9395V52.8384C228.849 52.604 228.82 52.3828 228.761 52.1748C228.706 51.9639 228.621 51.7778 228.506 51.6167C228.395 51.4526 228.254 51.3237 228.084 51.23C227.917 51.1362 227.721 51.0894 227.496 51.0894C227.273 51.0894 227.077 51.1362 226.907 51.23C226.74 51.3237 226.599 51.4526 226.485 51.6167C226.374 51.7778 226.29 51.9639 226.234 52.1748C226.179 52.3828 226.151 52.604 226.151 52.8384Z" fill="black"/>
<path d="M278.011 48.8657H278.833L280.929 54.082L283.021 48.8657H283.847L281.245 55.2642H280.604L278.011 48.8657ZM277.743 48.8657H278.468L278.586 52.7681V55.2642H277.743V48.8657ZM283.385 48.8657H284.11V55.2642H283.267V52.7681L283.385 48.8657ZM287.45 55.3521C287.119 55.3521 286.819 55.2964 286.549 55.1851C286.283 55.0708 286.053 54.9111 285.859 54.7061C285.669 54.501 285.522 54.2578 285.42 53.9766C285.317 53.6953 285.266 53.3877 285.266 53.0537V52.8691C285.266 52.4824 285.323 52.1382 285.438 51.8364C285.552 51.5317 285.707 51.2739 285.903 51.063C286.1 50.8521 286.322 50.6924 286.571 50.584C286.82 50.4756 287.078 50.4214 287.345 50.4214C287.685 50.4214 287.978 50.48 288.224 50.5972C288.473 50.7144 288.676 50.8784 288.834 51.0894C288.993 51.2974 289.11 51.5435 289.186 51.8276C289.262 52.1089 289.3 52.4165 289.3 52.7505V53.1152H285.75V52.4517H288.487V52.3901C288.476 52.1792 288.432 51.9741 288.355 51.7749C288.282 51.5757 288.165 51.4116 288.004 51.2827C287.843 51.1538 287.623 51.0894 287.345 51.0894C287.16 51.0894 286.99 51.1289 286.835 51.208C286.68 51.2842 286.546 51.3984 286.435 51.5508C286.324 51.7031 286.237 51.8892 286.176 52.1089C286.114 52.3286 286.083 52.582 286.083 52.8691V53.0537C286.083 53.2793 286.114 53.4917 286.176 53.6909C286.24 53.8872 286.333 54.0601 286.453 54.2095C286.576 54.3589 286.724 54.4761 286.896 54.561C287.072 54.646 287.271 54.6885 287.494 54.6885C287.781 54.6885 288.024 54.6299 288.224 54.5127C288.423 54.3955 288.597 54.2388 288.747 54.0425L289.239 54.4336C289.136 54.5889 289.006 54.7368 288.848 54.8774C288.689 55.0181 288.495 55.1323 288.263 55.2202C288.035 55.3081 287.764 55.3521 287.45 55.3521ZM293.247 54.3413V48.5142H294.064V55.2642H293.317L293.247 54.3413ZM290.047 52.9395V52.8472C290.047 52.4839 290.091 52.1543 290.179 51.8584C290.27 51.5596 290.397 51.3032 290.562 51.0894C290.729 50.8755 290.926 50.7114 291.155 50.5972C291.386 50.48 291.644 50.4214 291.928 50.4214C292.227 50.4214 292.488 50.4741 292.71 50.5796C292.936 50.6821 293.126 50.833 293.282 51.0322C293.44 51.2285 293.564 51.4658 293.655 51.7441C293.746 52.0225 293.809 52.3374 293.844 52.689V53.0933C293.812 53.4419 293.749 53.7554 293.655 54.0337C293.564 54.312 293.44 54.5493 293.282 54.7456C293.126 54.9419 292.936 55.0928 292.71 55.1982C292.485 55.3008 292.221 55.3521 291.919 55.3521C291.641 55.3521 291.386 55.292 291.155 55.1719C290.926 55.0518 290.729 54.8833 290.562 54.6665C290.397 54.4497 290.27 54.1948 290.179 53.9019C290.091 53.606 290.047 53.2852 290.047 52.9395ZM290.865 52.8472V52.9395C290.865 53.1768 290.888 53.3994 290.935 53.6074C290.985 53.8154 291.061 53.9985 291.164 54.1567C291.266 54.3149 291.396 54.4395 291.555 54.5303C291.713 54.6182 291.902 54.6621 292.122 54.6621C292.391 54.6621 292.612 54.605 292.785 54.4907C292.961 54.3765 293.102 54.2256 293.207 54.0381C293.312 53.8506 293.395 53.647 293.453 53.4272V52.3682C293.418 52.207 293.367 52.0518 293.299 51.9023C293.235 51.75 293.15 51.6152 293.044 51.498C292.942 51.3779 292.814 51.2827 292.662 51.2124C292.513 51.1421 292.335 51.1069 292.13 51.1069C291.908 51.1069 291.716 51.1538 291.555 51.2476C291.396 51.3384 291.266 51.4644 291.164 51.6255C291.061 51.7837 290.985 51.9683 290.935 52.1792C290.888 52.3872 290.865 52.6099 290.865 52.8472ZM296.213 50.5093V55.2642H295.396V50.5093H296.213ZM295.334 49.248C295.334 49.1162 295.374 49.0049 295.453 48.9141C295.535 48.8232 295.655 48.7778 295.813 48.7778C295.968 48.7778 296.087 48.8232 296.169 48.9141C296.254 49.0049 296.296 49.1162 296.296 49.248C296.296 49.374 296.254 49.4824 296.169 49.5732C296.087 49.6611 295.968 49.7051 295.813 49.7051C295.655 49.7051 295.535 49.6611 295.453 49.5732C295.374 49.4824 295.334 49.374 295.334 49.248ZM297.303 52.9395V52.8384C297.303 52.4956 297.353 52.1777 297.452 51.8848C297.552 51.5889 297.695 51.3325 297.883 51.1157C298.07 50.896 298.297 50.7261 298.564 50.606C298.831 50.4829 299.129 50.4214 299.46 50.4214C299.794 50.4214 300.095 50.4829 300.361 50.606C300.631 50.7261 300.859 50.896 301.047 51.1157C301.237 51.3325 301.382 51.5889 301.482 51.8848C301.582 52.1777 301.631 52.4956 301.631 52.8384V52.9395C301.631 53.2822 301.582 53.6001 301.482 53.8931C301.382 54.186 301.237 54.4424 301.047 54.6621C300.859 54.8789 300.632 55.0488 300.366 55.1719C300.102 55.292 299.803 55.3521 299.469 55.3521C299.135 55.3521 298.835 55.292 298.568 55.1719C298.302 55.0488 298.073 54.8789 297.883 54.6621C297.695 54.4424 297.552 54.186 297.452 53.8931C297.353 53.6001 297.303 53.2822 297.303 52.9395ZM298.116 52.8384V52.9395C298.116 53.1768 298.144 53.4009 298.199 53.6118C298.255 53.8198 298.338 54.0044 298.45 54.1655C298.564 54.3267 298.706 54.4541 298.876 54.5479C299.046 54.6387 299.244 54.6841 299.469 54.6841C299.692 54.6841 299.887 54.6387 300.054 54.5479C300.224 54.4541 300.364 54.3267 300.476 54.1655C300.587 54.0044 300.67 53.8198 300.726 53.6118C300.785 53.4009 300.814 53.1768 300.814 52.9395V52.8384C300.814 52.604 300.785 52.3828 300.726 52.1748C300.67 51.9639 300.585 51.7778 300.471 51.6167C300.36 51.4526 300.219 51.3237 300.049 51.23C299.882 51.1362 299.686 51.0894 299.46 51.0894C299.238 51.0894 299.042 51.1362 298.872 51.23C298.705 51.3237 298.564 51.4526 298.45 51.6167C298.338 51.7778 298.255 51.9639 298.199 52.1748C298.144 52.3828 298.116 52.604 298.116 52.8384ZM305.419 54.0029C305.419 53.8857 305.393 53.7773 305.34 53.6777C305.291 53.5752 305.187 53.4829 305.028 53.4009C304.873 53.3159 304.639 53.2427 304.325 53.1812C304.062 53.1255 303.823 53.0596 303.609 52.9834C303.398 52.9072 303.218 52.8149 303.068 52.7065C302.922 52.5981 302.809 52.4707 302.73 52.3242C302.651 52.1777 302.611 52.0063 302.611 51.8101C302.611 51.6226 302.652 51.4453 302.734 51.2783C302.819 51.1113 302.938 50.9634 303.09 50.8345C303.246 50.7056 303.432 50.6045 303.648 50.5312C303.865 50.458 304.107 50.4214 304.374 50.4214C304.754 50.4214 305.08 50.4888 305.349 50.6235C305.619 50.7583 305.825 50.9385 305.969 51.1641C306.112 51.3867 306.184 51.6343 306.184 51.9067H305.371C305.371 51.7749 305.332 51.6475 305.252 51.5244C305.176 51.3984 305.063 51.2944 304.914 51.2124C304.768 51.1304 304.587 51.0894 304.374 51.0894C304.148 51.0894 303.965 51.1245 303.824 51.1948C303.687 51.2622 303.585 51.3486 303.521 51.4541C303.459 51.5596 303.429 51.6709 303.429 51.7881C303.429 51.876 303.443 51.9551 303.473 52.0254C303.505 52.0928 303.561 52.1558 303.64 52.2144C303.719 52.27 303.83 52.3228 303.974 52.3726C304.117 52.4224 304.3 52.4722 304.523 52.522C304.913 52.6099 305.233 52.7153 305.485 52.8384C305.737 52.9614 305.925 53.1123 306.048 53.291C306.171 53.4697 306.232 53.6865 306.232 53.9414C306.232 54.1494 306.188 54.3398 306.101 54.5127C306.016 54.6855 305.891 54.835 305.727 54.9609C305.566 55.084 305.373 55.1807 305.147 55.251C304.924 55.3184 304.674 55.3521 304.396 55.3521C303.977 55.3521 303.622 55.2773 303.332 55.1279C303.042 54.9785 302.822 54.7852 302.673 54.5479C302.523 54.3105 302.449 54.0601 302.449 53.7964H303.266C303.278 54.019 303.342 54.1963 303.459 54.3281C303.577 54.457 303.72 54.5493 303.89 54.605C304.06 54.6577 304.229 54.6841 304.396 54.6841C304.618 54.6841 304.804 54.6548 304.954 54.5962C305.106 54.5376 305.222 54.457 305.301 54.3545C305.38 54.252 305.419 54.1348 305.419 54.0029ZM312.53 54.3413V48.5142H313.347V55.2642H312.6L312.53 54.3413ZM309.331 52.9395V52.8472C309.331 52.4839 309.375 52.1543 309.462 51.8584C309.553 51.5596 309.681 51.3032 309.845 51.0894C310.012 50.8755 310.209 50.7114 310.438 50.5972C310.669 50.48 310.927 50.4214 311.211 50.4214C311.51 50.4214 311.771 50.4741 311.994 50.5796C312.219 50.6821 312.41 50.833 312.565 51.0322C312.723 51.2285 312.848 51.4658 312.938 51.7441C313.029 52.0225 313.092 52.3374 313.127 52.689V53.0933C313.095 53.4419 313.032 53.7554 312.938 54.0337C312.848 54.312 312.723 54.5493 312.565 54.7456C312.41 54.9419 312.219 55.0928 311.994 55.1982C311.768 55.3008 311.504 55.3521 311.203 55.3521C310.924 55.3521 310.669 55.292 310.438 55.1719C310.209 55.0518 310.012 54.8833 309.845 54.6665C309.681 54.4497 309.553 54.1948 309.462 53.9019C309.375 53.606 309.331 53.2852 309.331 52.9395ZM310.148 52.8472V52.9395C310.148 53.1768 310.171 53.3994 310.218 53.6074C310.268 53.8154 310.344 53.9985 310.447 54.1567C310.549 54.3149 310.68 54.4395 310.838 54.5303C310.996 54.6182 311.185 54.6621 311.405 54.6621C311.674 54.6621 311.896 54.605 312.068 54.4907C312.244 54.3765 312.385 54.2256 312.49 54.0381C312.596 53.8506 312.678 53.647 312.736 53.4272V52.3682C312.701 52.207 312.65 52.0518 312.583 51.9023C312.518 51.75 312.433 51.6152 312.328 51.498C312.225 51.3779 312.098 51.2827 311.945 51.2124C311.796 51.1421 311.619 51.1069 311.414 51.1069C311.191 51.1069 310.999 51.1538 310.838 51.2476C310.68 51.3384 310.549 51.4644 310.447 51.6255C310.344 51.7837 310.268 51.9683 310.218 52.1792C310.171 52.3872 310.148 52.6099 310.148 52.8472ZM316.586 55.3521C316.255 55.3521 315.955 55.2964 315.685 55.1851C315.418 55.0708 315.188 54.9111 314.995 54.7061C314.805 54.501 314.658 54.2578 314.556 53.9766C314.453 53.6953 314.402 53.3877 314.402 53.0537V52.8691C314.402 52.4824 314.459 52.1382 314.573 51.8364C314.688 51.5317 314.843 51.2739 315.039 51.063C315.235 50.8521 315.458 50.6924 315.707 50.584C315.956 50.4756 316.214 50.4214 316.48 50.4214C316.82 50.4214 317.113 50.48 317.359 50.5972C317.608 50.7144 317.812 50.8784 317.97 51.0894C318.128 51.2974 318.246 51.5435 318.322 51.8276C318.398 52.1089 318.436 52.4165 318.436 52.7505V53.1152H314.885V52.4517H317.623V52.3901C317.611 52.1792 317.567 51.9741 317.491 51.7749C317.418 51.5757 317.301 51.4116 317.14 51.2827C316.979 51.1538 316.759 51.0894 316.48 51.0894C316.296 51.0894 316.126 51.1289 315.971 51.208C315.815 51.2842 315.682 51.3984 315.571 51.5508C315.459 51.7031 315.373 51.8892 315.312 52.1089C315.25 52.3286 315.219 52.582 315.219 52.8691V53.0537C315.219 53.2793 315.25 53.4917 315.312 53.6909C315.376 53.8872 315.468 54.0601 315.588 54.2095C315.711 54.3589 315.859 54.4761 316.032 54.561C316.208 54.646 316.407 54.6885 316.63 54.6885C316.917 54.6885 317.16 54.6299 317.359 54.5127C317.559 54.3955 317.733 54.2388 317.882 54.0425L318.375 54.4336C318.272 54.5889 318.142 54.7368 317.983 54.8774C317.825 55.0181 317.63 55.1323 317.399 55.2202C317.17 55.3081 316.899 55.3521 316.586 55.3521ZM322.431 51.4233V57.0923H321.613V50.5093H322.36L322.431 51.4233ZM325.634 52.8472V52.9395C325.634 53.2852 325.593 53.606 325.511 53.9019C325.429 54.1948 325.309 54.4497 325.151 54.6665C324.996 54.8833 324.804 55.0518 324.575 55.1719C324.347 55.292 324.084 55.3521 323.789 55.3521C323.487 55.3521 323.22 55.3022 322.989 55.2026C322.757 55.103 322.561 54.958 322.4 54.7676C322.239 54.5771 322.11 54.3486 322.013 54.082C321.919 53.8154 321.855 53.5151 321.82 53.1812V52.689C321.855 52.3374 321.921 52.0225 322.018 51.7441C322.114 51.4658 322.242 51.2285 322.4 51.0322C322.561 50.833 322.756 50.6821 322.984 50.5796C323.213 50.4741 323.477 50.4214 323.775 50.4214C324.074 50.4214 324.339 50.48 324.571 50.5972C324.802 50.7114 324.997 50.8755 325.155 51.0894C325.313 51.3032 325.432 51.5596 325.511 51.8584C325.593 52.1543 325.634 52.4839 325.634 52.8472ZM324.817 52.9395V52.8472C324.817 52.6099 324.792 52.3872 324.742 52.1792C324.692 51.9683 324.615 51.7837 324.509 51.6255C324.407 51.4644 324.275 51.3384 324.114 51.2476C323.953 51.1538 323.761 51.1069 323.538 51.1069C323.333 51.1069 323.154 51.1421 323.002 51.2124C322.853 51.2827 322.725 51.3779 322.62 51.498C322.514 51.6152 322.428 51.75 322.36 51.9023C322.296 52.0518 322.248 52.207 322.215 52.3682V53.5063C322.274 53.7114 322.356 53.9048 322.461 54.0864C322.567 54.2651 322.708 54.4102 322.883 54.5215C323.059 54.6299 323.28 54.6841 323.547 54.6841C323.767 54.6841 323.956 54.6387 324.114 54.5479C324.275 54.4541 324.407 54.3267 324.509 54.1655C324.615 54.0044 324.692 53.8198 324.742 53.6118C324.792 53.4009 324.817 53.1768 324.817 52.9395ZM329.475 54.4512V52.0034C329.475 51.8159 329.437 51.6533 329.361 51.5156C329.288 51.375 329.176 51.2666 329.027 51.1904C328.877 51.1143 328.693 51.0762 328.473 51.0762C328.268 51.0762 328.088 51.1113 327.933 51.1816C327.78 51.252 327.66 51.3442 327.572 51.4585C327.487 51.5728 327.445 51.6958 327.445 51.8276H326.632C326.632 51.6577 326.676 51.4893 326.764 51.3223C326.852 51.1553 326.978 51.0044 327.142 50.8696C327.309 50.7319 327.508 50.6235 327.739 50.5444C327.974 50.4624 328.234 50.4214 328.521 50.4214C328.867 50.4214 329.172 50.48 329.436 50.5972C329.702 50.7144 329.91 50.8916 330.06 51.1289C330.212 51.3633 330.288 51.6577 330.288 52.0122V54.2271C330.288 54.3853 330.301 54.5537 330.328 54.7324C330.357 54.9111 330.399 55.0649 330.455 55.1938V55.2642H329.607C329.566 55.1704 329.534 55.0459 329.51 54.8906C329.487 54.7324 329.475 54.5859 329.475 54.4512ZM329.616 52.3813L329.625 52.9526H328.803C328.571 52.9526 328.365 52.9717 328.183 53.0098C328.001 53.0449 327.849 53.0991 327.726 53.1724C327.603 53.2456 327.509 53.3379 327.445 53.4492C327.38 53.5576 327.348 53.6851 327.348 53.8315C327.348 53.981 327.382 54.1172 327.449 54.2402C327.517 54.3633 327.618 54.4614 327.752 54.5347C327.89 54.605 328.059 54.6401 328.258 54.6401C328.507 54.6401 328.727 54.5874 328.917 54.4819C329.107 54.3765 329.258 54.2476 329.37 54.0952C329.484 53.9429 329.545 53.7949 329.554 53.6514L329.901 54.0425C329.881 54.1655 329.825 54.3018 329.734 54.4512C329.644 54.6006 329.522 54.7441 329.37 54.8818C329.22 55.0166 329.042 55.1294 328.833 55.2202C328.628 55.3081 328.397 55.3521 328.139 55.3521C327.817 55.3521 327.534 55.2891 327.291 55.1631C327.051 55.0371 326.863 54.8687 326.729 54.6577C326.597 54.4438 326.531 54.2051 326.531 53.9414C326.531 53.6865 326.581 53.4624 326.68 53.269C326.78 53.0728 326.923 52.9102 327.111 52.7812C327.298 52.6494 327.524 52.5498 327.788 52.4824C328.051 52.415 328.346 52.3813 328.671 52.3813H329.616ZM334.647 50.5093H335.386V55.1631C335.386 55.582 335.301 55.9395 335.131 56.2354C334.961 56.5312 334.724 56.7554 334.419 56.9077C334.117 57.063 333.769 57.1406 333.373 57.1406C333.209 57.1406 333.016 57.1143 332.793 57.0615C332.573 57.0117 332.356 56.9253 332.143 56.8022C331.932 56.6821 331.754 56.5195 331.611 56.3145L332.037 55.8311C332.236 56.0713 332.444 56.2383 332.661 56.332C332.881 56.4258 333.098 56.4727 333.312 56.4727C333.569 56.4727 333.792 56.4243 333.979 56.3276C334.167 56.231 334.312 56.0874 334.415 55.897C334.52 55.7095 334.573 55.478 334.573 55.2026V51.5552L334.647 50.5093ZM331.374 52.9395V52.8472C331.374 52.4839 331.416 52.1543 331.501 51.8584C331.589 51.5596 331.713 51.3032 331.875 51.0894C332.039 50.8755 332.236 50.7114 332.468 50.5972C332.699 50.48 332.96 50.4214 333.25 50.4214C333.549 50.4214 333.81 50.4741 334.032 50.5796C334.258 50.6821 334.448 50.833 334.604 51.0322C334.762 51.2285 334.886 51.4658 334.977 51.7441C335.068 52.0225 335.131 52.3374 335.166 52.689V53.0933C335.134 53.4419 335.071 53.7554 334.977 54.0337C334.886 54.312 334.762 54.5493 334.604 54.7456C334.448 54.9419 334.258 55.0928 334.032 55.1982C333.807 55.3008 333.543 55.3521 333.241 55.3521C332.957 55.3521 332.699 55.292 332.468 55.1719C332.239 55.0518 332.043 54.8833 331.879 54.6665C331.715 54.4497 331.589 54.1948 331.501 53.9019C331.416 53.606 331.374 53.2852 331.374 52.9395ZM332.187 52.8472V52.9395C332.187 53.1768 332.21 53.3994 332.257 53.6074C332.307 53.8154 332.381 53.9985 332.481 54.1567C332.583 54.3149 332.714 54.4395 332.872 54.5303C333.03 54.6182 333.219 54.6621 333.439 54.6621C333.708 54.6621 333.931 54.605 334.107 54.4907C334.283 54.3765 334.422 54.2256 334.524 54.0381C334.63 53.8506 334.712 53.647 334.771 53.4272V52.3682C334.738 52.207 334.688 52.0518 334.621 51.9023C334.557 51.75 334.472 51.6152 334.366 51.498C334.264 51.3779 334.136 51.2827 333.984 51.2124C333.832 51.1421 333.653 51.1069 333.448 51.1069C333.225 51.1069 333.033 51.1538 332.872 51.2476C332.714 51.3384 332.583 51.4644 332.481 51.6255C332.381 51.7837 332.307 51.9683 332.257 52.1792C332.21 52.3872 332.187 52.6099 332.187 52.8472ZM336.405 52.9395V52.8384C336.405 52.4956 336.455 52.1777 336.555 51.8848C336.654 51.5889 336.798 51.3325 336.985 51.1157C337.173 50.896 337.4 50.7261 337.667 50.606C337.933 50.4829 338.232 50.4214 338.563 50.4214C338.897 50.4214 339.197 50.4829 339.464 50.606C339.733 50.7261 339.962 50.896 340.149 51.1157C340.34 51.3325 340.485 51.5889 340.584 51.8848C340.684 52.1777 340.734 52.4956 340.734 52.8384V52.9395C340.734 53.2822 340.684 53.6001 340.584 53.8931C340.485 54.186 340.34 54.4424 340.149 54.6621C339.962 54.8789 339.735 55.0488 339.468 55.1719C339.205 55.292 338.906 55.3521 338.572 55.3521C338.238 55.3521 337.938 55.292 337.671 55.1719C337.404 55.0488 337.176 54.8789 336.985 54.6621C336.798 54.4424 336.654 54.186 336.555 53.8931C336.455 53.6001 336.405 53.2822 336.405 52.9395ZM337.218 52.8384V52.9395C337.218 53.1768 337.246 53.4009 337.302 53.6118C337.357 53.8198 337.441 54.0044 337.552 54.1655C337.667 54.3267 337.809 54.4541 337.979 54.5479C338.148 54.6387 338.346 54.6841 338.572 54.6841C338.794 54.6841 338.989 54.6387 339.156 54.5479C339.326 54.4541 339.467 54.3267 339.578 54.1655C339.689 54.0044 339.773 53.8198 339.829 53.6118C339.887 53.4009 339.917 53.1768 339.917 52.9395V52.8384C339.917 52.604 339.887 52.3828 339.829 52.1748C339.773 51.9639 339.688 51.7778 339.574 51.6167C339.462 51.4526 339.322 51.3237 339.152 51.23C338.985 51.1362 338.789 51.0894 338.563 51.0894C338.34 51.0894 338.144 51.1362 337.974 51.23C337.807 51.3237 337.667 51.4526 337.552 51.6167C337.441 51.7778 337.357 51.9639 337.302 52.1748C337.246 52.3828 337.218 52.604 337.218 52.8384Z" fill="black"/>
<path d="M36.8076 54.5742V55.2642H33.4194V54.5742H36.8076ZM33.5908 48.8657V55.2642H32.7427V48.8657H33.5908ZM36.3594 51.6167V52.3066H33.4194V51.6167H36.3594ZM36.7637 48.8657V49.5601H33.4194V48.8657H36.7637ZM38.5479 51.5244V55.2642H37.7349V50.5093H38.5039L38.5479 51.5244ZM38.3545 52.7065L38.0161 52.6934C38.019 52.3682 38.0674 52.0679 38.1611 51.7925C38.2549 51.5142 38.3867 51.2725 38.5566 51.0674C38.7266 50.8623 38.9287 50.7041 39.1631 50.5928C39.4004 50.4785 39.6626 50.4214 39.9497 50.4214C40.1841 50.4214 40.395 50.4536 40.5825 50.5181C40.77 50.5796 40.9297 50.6792 41.0615 50.8169C41.1963 50.9546 41.2988 51.1333 41.3691 51.353C41.4395 51.5698 41.4746 51.835 41.4746 52.1484V55.2642H40.6572V52.1396C40.6572 51.8906 40.6206 51.6914 40.5474 51.542C40.4741 51.3896 40.3672 51.2798 40.2266 51.2124C40.0859 51.1421 39.9131 51.1069 39.708 51.1069C39.5059 51.1069 39.3213 51.1494 39.1543 51.2344C38.9902 51.3193 38.8481 51.4365 38.728 51.5859C38.6108 51.7354 38.5186 51.9067 38.4512 52.1001C38.3867 52.2905 38.3545 52.4927 38.3545 52.7065ZM44.1553 54.5303L45.4561 50.5093H46.2866L44.5771 55.2642H44.0322L44.1553 54.5303ZM43.0698 50.5093L44.4102 54.5522L44.5024 55.2642H43.9575L42.2349 50.5093H43.0698ZM47.9478 50.5093V55.2642H47.1348V50.5093H47.9478ZM47.1084 49.8149L47.9609 48.5229H48.9409L47.7632 49.8149H47.1084ZM49.0859 52.9395V52.8384C49.0859 52.4956 49.1357 52.1777 49.2354 51.8848C49.335 51.5889 49.4785 51.3325 49.666 51.1157C49.8535 50.896 50.0806 50.7261 50.3472 50.606C50.6138 50.4829 50.9126 50.4214 51.2437 50.4214C51.5776 50.4214 51.8779 50.4829 52.1445 50.606C52.4141 50.7261 52.6426 50.896 52.8301 51.1157C53.0205 51.3325 53.1655 51.5889 53.2651 51.8848C53.3647 52.1777 53.4146 52.4956 53.4146 52.8384V52.9395C53.4146 53.2822 53.3647 53.6001 53.2651 53.8931C53.1655 54.186 53.0205 54.4424 52.8301 54.6621C52.6426 54.8789 52.4155 55.0488 52.1489 55.1719C51.8853 55.292 51.5864 55.3521 51.2524 55.3521C50.9185 55.3521 50.6182 55.292 50.3516 55.1719C50.085 55.0488 49.8564 54.8789 49.666 54.6621C49.4785 54.4424 49.335 54.186 49.2354 53.8931C49.1357 53.6001 49.0859 53.2822 49.0859 52.9395ZM49.8989 52.8384V52.9395C49.8989 53.1768 49.9268 53.4009 49.9824 53.6118C50.0381 53.8198 50.1216 54.0044 50.2329 54.1655C50.3472 54.3267 50.4893 54.4541 50.6592 54.5479C50.8291 54.6387 51.0269 54.6841 51.2524 54.6841C51.4751 54.6841 51.6699 54.6387 51.8369 54.5479C52.0068 54.4541 52.1475 54.3267 52.2588 54.1655C52.3701 54.0044 52.4536 53.8198 52.5093 53.6118C52.5679 53.4009 52.5972 53.1768 52.5972 52.9395V52.8384C52.5972 52.604 52.5679 52.3828 52.5093 52.1748C52.4536 51.9639 52.3687 51.7778 52.2544 51.6167C52.1431 51.4526 52.0024 51.3237 51.8325 51.23C51.6655 51.1362 51.4692 51.0894 51.2437 51.0894C51.021 51.0894 50.8247 51.1362 50.6548 51.23C50.4878 51.3237 50.3472 51.4526 50.2329 51.6167C50.1216 51.7778 50.0381 51.9639 49.9824 52.1748C49.9268 52.3828 49.8989 52.604 49.8989 52.8384ZM57.2026 54.0029C57.2026 53.8857 57.1763 53.7773 57.1235 53.6777C57.0737 53.5752 56.9697 53.4829 56.8115 53.4009C56.6562 53.3159 56.4219 53.2427 56.1084 53.1812C55.8447 53.1255 55.606 53.0596 55.3921 52.9834C55.1812 52.9072 55.001 52.8149 54.8516 52.7065C54.7051 52.5981 54.5923 52.4707 54.5132 52.3242C54.4341 52.1777 54.3945 52.0063 54.3945 51.8101C54.3945 51.6226 54.4355 51.4453 54.5176 51.2783C54.6025 51.1113 54.7212 50.9634 54.8735 50.8345C55.0288 50.7056 55.2148 50.6045 55.4316 50.5312C55.6484 50.458 55.8901 50.4214 56.1567 50.4214C56.5376 50.4214 56.8628 50.4888 57.1323 50.6235C57.4019 50.7583 57.6084 50.9385 57.752 51.1641C57.8955 51.3867 57.9673 51.6343 57.9673 51.9067H57.1543C57.1543 51.7749 57.1147 51.6475 57.0356 51.5244C56.9595 51.3984 56.8467 51.2944 56.6973 51.2124C56.5508 51.1304 56.3706 51.0894 56.1567 51.0894C55.9312 51.0894 55.748 51.1245 55.6074 51.1948C55.4697 51.2622 55.3687 51.3486 55.3042 51.4541C55.2427 51.5596 55.2119 51.6709 55.2119 51.7881C55.2119 51.876 55.2266 51.9551 55.2559 52.0254C55.2881 52.0928 55.3438 52.1558 55.4229 52.2144C55.502 52.27 55.6133 52.3228 55.7568 52.3726C55.9004 52.4224 56.0835 52.4722 56.3062 52.522C56.6958 52.6099 57.0166 52.7153 57.2686 52.8384C57.5205 52.9614 57.708 53.1123 57.8311 53.291C57.9541 53.4697 58.0156 53.6865 58.0156 53.9414C58.0156 54.1494 57.9717 54.3398 57.8838 54.5127C57.7988 54.6855 57.6743 54.835 57.5103 54.9609C57.3491 55.084 57.1558 55.1807 56.9302 55.251C56.7075 55.3184 56.457 55.3521 56.1787 55.3521C55.7598 55.3521 55.4053 55.2773 55.1152 55.1279C54.8252 54.9785 54.6055 54.7852 54.4561 54.5479C54.3066 54.3105 54.2319 54.0601 54.2319 53.7964H55.0493C55.061 54.019 55.1255 54.1963 55.2427 54.3281C55.3599 54.457 55.5034 54.5493 55.6733 54.605C55.8433 54.6577 56.0117 54.6841 56.1787 54.6841C56.4014 54.6841 56.5874 54.6548 56.7368 54.5962C56.8892 54.5376 57.0049 54.457 57.084 54.3545C57.1631 54.252 57.2026 54.1348 57.2026 54.0029ZM64.1196 54.4512V52.0034C64.1196 51.8159 64.0815 51.6533 64.0054 51.5156C63.9321 51.375 63.8208 51.2666 63.6714 51.1904C63.522 51.1143 63.3374 51.0762 63.1177 51.0762C62.9126 51.0762 62.7324 51.1113 62.5771 51.1816C62.4248 51.252 62.3047 51.3442 62.2168 51.4585C62.1318 51.5728 62.0894 51.6958 62.0894 51.8276H61.2764C61.2764 51.6577 61.3203 51.4893 61.4082 51.3223C61.4961 51.1553 61.6221 51.0044 61.7861 50.8696C61.9531 50.7319 62.1523 50.6235 62.3838 50.5444C62.6182 50.4624 62.8789 50.4214 63.166 50.4214C63.5117 50.4214 63.8164 50.48 64.0801 50.5972C64.3467 50.7144 64.5547 50.8916 64.7041 51.1289C64.8564 51.3633 64.9326 51.6577 64.9326 52.0122V54.2271C64.9326 54.3853 64.9458 54.5537 64.9722 54.7324C65.0015 54.9111 65.0439 55.0649 65.0996 55.1938V55.2642H64.2515C64.2104 55.1704 64.1782 55.0459 64.1548 54.8906C64.1313 54.7324 64.1196 54.5859 64.1196 54.4512ZM64.2603 52.3813L64.269 52.9526H63.4473C63.2158 52.9526 63.0093 52.9717 62.8276 53.0098C62.646 53.0449 62.4937 53.0991 62.3706 53.1724C62.2476 53.2456 62.1538 53.3379 62.0894 53.4492C62.0249 53.5576 61.9927 53.6851 61.9927 53.8315C61.9927 53.981 62.0264 54.1172 62.0938 54.2402C62.1611 54.3633 62.2622 54.4614 62.397 54.5347C62.5347 54.605 62.7031 54.6401 62.9023 54.6401C63.1514 54.6401 63.3711 54.5874 63.5615 54.4819C63.752 54.3765 63.9028 54.2476 64.0142 54.0952C64.1284 53.9429 64.1899 53.7949 64.1987 53.6514L64.5459 54.0425C64.5254 54.1655 64.4697 54.3018 64.3789 54.4512C64.2881 54.6006 64.1665 54.7441 64.0142 54.8818C63.8647 55.0166 63.686 55.1294 63.478 55.2202C63.2729 55.3081 63.0415 55.3521 62.7837 55.3521C62.4614 55.3521 62.1787 55.2891 61.9355 55.1631C61.6953 55.0371 61.5078 54.8687 61.373 54.6577C61.2412 54.4438 61.1753 54.2051 61.1753 53.9414C61.1753 53.6865 61.2251 53.4624 61.3247 53.269C61.4243 53.0728 61.5679 52.9102 61.7554 52.7812C61.9429 52.6494 62.1685 52.5498 62.4321 52.4824C62.6958 52.415 62.9902 52.3813 63.3154 52.3813H64.2603ZM70.4346 50.5093V51.1333H67.8638V50.5093H70.4346ZM68.7339 49.3535H69.5469V54.0864C69.5469 54.2476 69.5718 54.3691 69.6216 54.4512C69.6714 54.5332 69.7358 54.5874 69.8149 54.6138C69.894 54.6401 69.979 54.6533 70.0698 54.6533C70.1372 54.6533 70.2075 54.6475 70.2808 54.6357C70.3569 54.6211 70.4141 54.6094 70.4521 54.6006L70.4565 55.2642C70.3921 55.2847 70.3071 55.3037 70.2017 55.3213C70.0991 55.3418 69.9746 55.3521 69.8281 55.3521C69.6289 55.3521 69.4458 55.3125 69.2788 55.2334C69.1118 55.1543 68.9785 55.0225 68.8789 54.8379C68.7822 54.6504 68.7339 54.3984 68.7339 54.082V49.3535ZM71.085 52.9395V52.8384C71.085 52.4956 71.1348 52.1777 71.2344 51.8848C71.334 51.5889 71.4775 51.3325 71.665 51.1157C71.8525 50.896 72.0796 50.7261 72.3462 50.606C72.6128 50.4829 72.9116 50.4214 73.2427 50.4214C73.5767 50.4214 73.877 50.4829 74.1436 50.606C74.4131 50.7261 74.6416 50.896 74.8291 51.1157C75.0195 51.3325 75.1646 51.5889 75.2642 51.8848C75.3638 52.1777 75.4136 52.4956 75.4136 52.8384V52.9395C75.4136 53.2822 75.3638 53.6001 75.2642 53.8931C75.1646 54.186 75.0195 54.4424 74.8291 54.6621C74.6416 54.8789 74.4146 55.0488 74.1479 55.1719C73.8843 55.292 73.5854 55.3521 73.2515 55.3521C72.9175 55.3521 72.6172 55.292 72.3506 55.1719C72.084 55.0488 71.8555 54.8789 71.665 54.6621C71.4775 54.4424 71.334 54.186 71.2344 53.8931C71.1348 53.6001 71.085 53.2822 71.085 52.9395ZM71.8979 52.8384V52.9395C71.8979 53.1768 71.9258 53.4009 71.9814 53.6118C72.0371 53.8198 72.1206 54.0044 72.2319 54.1655C72.3462 54.3267 72.4883 54.4541 72.6582 54.5479C72.8281 54.6387 73.0259 54.6841 73.2515 54.6841C73.4741 54.6841 73.6689 54.6387 73.8359 54.5479C74.0059 54.4541 74.1465 54.3267 74.2578 54.1655C74.3691 54.0044 74.4526 53.8198 74.5083 53.6118C74.5669 53.4009 74.5962 53.1768 74.5962 52.9395V52.8384C74.5962 52.604 74.5669 52.3828 74.5083 52.1748C74.4526 51.9639 74.3677 51.7778 74.2534 51.6167C74.1421 51.4526 74.0015 51.3237 73.8315 51.23C73.6646 51.1362 73.4683 51.0894 73.2427 51.0894C73.02 51.0894 72.8237 51.1362 72.6538 51.23C72.4868 51.3237 72.3462 51.4526 72.2319 51.6167C72.1206 51.7778 72.0371 51.9639 71.9814 52.1748C71.9258 52.3828 71.8979 52.604 71.8979 52.8384ZM79.4302 54.3413V48.5142H80.2476V55.2642H79.5005L79.4302 54.3413ZM76.231 52.9395V52.8472C76.231 52.4839 76.2749 52.1543 76.3628 51.8584C76.4536 51.5596 76.5811 51.3032 76.7451 51.0894C76.9121 50.8755 77.1099 50.7114 77.3384 50.5972C77.5698 50.48 77.8276 50.4214 78.1118 50.4214C78.4106 50.4214 78.6714 50.4741 78.894 50.5796C79.1196 50.6821 79.3101 50.833 79.4653 51.0322C79.6235 51.2285 79.748 51.4658 79.8389 51.7441C79.9297 52.0225 79.9927 52.3374 80.0278 52.689V53.0933C79.9956 53.4419 79.9326 53.7554 79.8389 54.0337C79.748 54.312 79.6235 54.5493 79.4653 54.7456C79.3101 54.9419 79.1196 55.0928 78.894 55.1982C78.6685 55.3008 78.4048 55.3521 78.103 55.3521C77.8247 55.3521 77.5698 55.292 77.3384 55.1719C77.1099 55.0518 76.9121 54.8833 76.7451 54.6665C76.5811 54.4497 76.4536 54.1948 76.3628 53.9019C76.2749 53.606 76.231 53.2852 76.231 52.9395ZM77.0483 52.8472V52.9395C77.0483 53.1768 77.0718 53.3994 77.1187 53.6074C77.1685 53.8154 77.2446 53.9985 77.3472 54.1567C77.4497 54.3149 77.5801 54.4395 77.7383 54.5303C77.8965 54.6182 78.0854 54.6621 78.3052 54.6621C78.5747 54.6621 78.7959 54.605 78.9688 54.4907C79.1445 54.3765 79.2852 54.2256 79.3906 54.0381C79.4961 53.8506 79.5781 53.647 79.6367 53.4272V52.3682C79.6016 52.207 79.5503 52.0518 79.4829 51.9023C79.4185 51.75 79.3335 51.6152 79.228 51.498C79.1255 51.3779 78.998 51.2827 78.8457 51.2124C78.6963 51.1421 78.519 51.1069 78.314 51.1069C78.0913 51.1069 77.8994 51.1538 77.7383 51.2476C77.5801 51.3384 77.4497 51.4644 77.3472 51.6255C77.2446 51.7837 77.1685 51.9683 77.1187 52.1792C77.0718 52.3872 77.0483 52.6099 77.0483 52.8472ZM81.2979 52.9395V52.8384C81.2979 52.4956 81.3477 52.1777 81.4473 51.8848C81.5469 51.5889 81.6904 51.3325 81.8779 51.1157C82.0654 50.896 82.2925 50.7261 82.5591 50.606C82.8257 50.4829 83.1245 50.4214 83.4556 50.4214C83.7896 50.4214 84.0898 50.4829 84.3564 50.606C84.626 50.7261 84.8545 50.896 85.042 51.1157C85.2324 51.3325 85.3774 51.5889 85.4771 51.8848C85.5767 52.1777 85.6265 52.4956 85.6265 52.8384V52.9395C85.6265 53.2822 85.5767 53.6001 85.4771 53.8931C85.3774 54.186 85.2324 54.4424 85.042 54.6621C84.8545 54.8789 84.6274 55.0488 84.3608 55.1719C84.0972 55.292 83.7983 55.3521 83.4644 55.3521C83.1304 55.3521 82.8301 55.292 82.5635 55.1719C82.2969 55.0488 82.0684 54.8789 81.8779 54.6621C81.6904 54.4424 81.5469 54.186 81.4473 53.8931C81.3477 53.6001 81.2979 53.2822 81.2979 52.9395ZM82.1108 52.8384V52.9395C82.1108 53.1768 82.1387 53.4009 82.1943 53.6118C82.25 53.8198 82.3335 54.0044 82.4448 54.1655C82.5591 54.3267 82.7012 54.4541 82.8711 54.5479C83.041 54.6387 83.2388 54.6841 83.4644 54.6841C83.687 54.6841 83.8818 54.6387 84.0488 54.5479C84.2188 54.4541 84.3594 54.3267 84.4707 54.1655C84.582 54.0044 84.6655 53.8198 84.7212 53.6118C84.7798 53.4009 84.8091 53.1768 84.8091 52.9395V52.8384C84.8091 52.604 84.7798 52.3828 84.7212 52.1748C84.6655 51.9639 84.5806 51.7778 84.4663 51.6167C84.355 51.4526 84.2144 51.3237 84.0444 51.23C83.8774 51.1362 83.6812 51.0894 83.4556 51.0894C83.2329 51.0894 83.0366 51.1362 82.8667 51.23C82.6997 51.3237 82.5591 51.4526 82.4448 51.6167C82.3335 51.7778 82.25 51.9639 82.1943 52.1748C82.1387 52.3828 82.1108 52.604 82.1108 52.8384ZM90.8516 55.3521C90.5205 55.3521 90.2202 55.2964 89.9507 55.1851C89.6841 55.0708 89.4541 54.9111 89.2607 54.7061C89.0703 54.501 88.9238 54.2578 88.8213 53.9766C88.7188 53.6953 88.6675 53.3877 88.6675 53.0537V52.8691C88.6675 52.4824 88.7246 52.1382 88.8389 51.8364C88.9531 51.5317 89.1084 51.2739 89.3047 51.063C89.501 50.8521 89.7236 50.6924 89.9727 50.584C90.2217 50.4756 90.4795 50.4214 90.7461 50.4214C91.0859 50.4214 91.3789 50.48 91.625 50.5972C91.874 50.7144 92.0776 50.8784 92.2358 51.0894C92.394 51.2974 92.5112 51.5435 92.5874 51.8276C92.6636 52.1089 92.7017 52.4165 92.7017 52.7505V53.1152H89.1509V52.4517H91.8887V52.3901C91.877 52.1792 91.833 51.9741 91.7568 51.7749C91.6836 51.5757 91.5664 51.4116 91.4053 51.2827C91.2441 51.1538 91.0244 51.0894 90.7461 51.0894C90.5615 51.0894 90.3916 51.1289 90.2363 51.208C90.0811 51.2842 89.9478 51.3984 89.8364 51.5508C89.7251 51.7031 89.6387 51.8892 89.5771 52.1089C89.5156 52.3286 89.4849 52.582 89.4849 52.8691V53.0537C89.4849 53.2793 89.5156 53.4917 89.5771 53.6909C89.6416 53.8872 89.7339 54.0601 89.854 54.2095C89.9771 54.3589 90.125 54.4761 90.2979 54.561C90.4736 54.646 90.6729 54.6885 90.8955 54.6885C91.1826 54.6885 91.4258 54.6299 91.625 54.5127C91.8242 54.3955 91.9985 54.2388 92.1479 54.0425L92.6401 54.4336C92.5376 54.5889 92.4072 54.7368 92.249 54.8774C92.0908 55.0181 91.896 55.1323 91.6646 55.2202C91.436 55.3081 91.165 55.3521 90.8516 55.3521ZM94.5342 48.5142V55.2642H93.7168V48.5142H94.5342ZM98.8848 51.4233V57.0923H98.0674V50.5093H98.8145L98.8848 51.4233ZM102.088 52.8472V52.9395C102.088 53.2852 102.047 53.606 101.965 53.9019C101.883 54.1948 101.763 54.4497 101.605 54.6665C101.45 54.8833 101.258 55.0518 101.029 55.1719C100.801 55.292 100.539 55.3521 100.243 55.3521C99.9409 55.3521 99.6743 55.3022 99.4429 55.2026C99.2114 55.103 99.0151 54.958 98.854 54.7676C98.6929 54.5771 98.564 54.3486 98.4673 54.082C98.3735 53.8154 98.3091 53.5151 98.2739 53.1812V52.689C98.3091 52.3374 98.375 52.0225 98.4717 51.7441C98.5684 51.4658 98.6958 51.2285 98.854 51.0322C99.0151 50.833 99.21 50.6821 99.4385 50.5796C99.667 50.4741 99.9307 50.4214 100.229 50.4214C100.528 50.4214 100.793 50.48 101.025 50.5972C101.256 50.7114 101.451 50.8755 101.609 51.0894C101.768 51.3032 101.886 51.5596 101.965 51.8584C102.047 52.1543 102.088 52.4839 102.088 52.8472ZM101.271 52.9395V52.8472C101.271 52.6099 101.246 52.3872 101.196 52.1792C101.146 51.9683 101.069 51.7837 100.963 51.6255C100.861 51.4644 100.729 51.3384 100.568 51.2476C100.407 51.1538 100.215 51.1069 99.9922 51.1069C99.7871 51.1069 99.6084 51.1421 99.4561 51.2124C99.3066 51.2827 99.1792 51.3779 99.0737 51.498C98.9683 51.6152 98.8818 51.75 98.8145 51.9023C98.75 52.0518 98.7017 52.207 98.6694 52.3682V53.5063C98.728 53.7114 98.8101 53.9048 98.9155 54.0864C99.021 54.2651 99.1616 54.4102 99.3374 54.5215C99.5132 54.6299 99.7344 54.6841 100.001 54.6841C100.221 54.6841 100.41 54.6387 100.568 54.5479C100.729 54.4541 100.861 54.3267 100.963 54.1655C101.069 54.0044 101.146 53.8198 101.196 53.6118C101.246 53.4009 101.271 53.1768 101.271 52.9395ZM105.929 54.4512V52.0034C105.929 51.8159 105.891 51.6533 105.815 51.5156C105.742 51.375 105.63 51.2666 105.481 51.1904C105.332 51.1143 105.147 51.0762 104.927 51.0762C104.722 51.0762 104.542 51.1113 104.387 51.1816C104.234 51.252 104.114 51.3442 104.026 51.4585C103.941 51.5728 103.899 51.6958 103.899 51.8276H103.086C103.086 51.6577 103.13 51.4893 103.218 51.3223C103.306 51.1553 103.432 51.0044 103.596 50.8696C103.763 50.7319 103.962 50.6235 104.193 50.5444C104.428 50.4624 104.688 50.4214 104.976 50.4214C105.321 50.4214 105.626 50.48 105.89 50.5972C106.156 50.7144 106.364 50.8916 106.514 51.1289C106.666 51.3633 106.742 51.6577 106.742 52.0122V54.2271C106.742 54.3853 106.755 54.5537 106.782 54.7324C106.811 54.9111 106.854 55.0649 106.909 55.1938V55.2642H106.061C106.02 55.1704 105.988 55.0459 105.964 54.8906C105.941 54.7324 105.929 54.5859 105.929 54.4512ZM106.07 52.3813L106.079 52.9526H105.257C105.025 52.9526 104.819 52.9717 104.637 53.0098C104.456 53.0449 104.303 53.0991 104.18 53.1724C104.057 53.2456 103.963 53.3379 103.899 53.4492C103.834 53.5576 103.802 53.6851 103.802 53.8315C103.802 53.981 103.836 54.1172 103.903 54.2402C103.971 54.3633 104.072 54.4614 104.207 54.5347C104.344 54.605 104.513 54.6401 104.712 54.6401C104.961 54.6401 105.181 54.5874 105.371 54.4819C105.562 54.3765 105.712 54.2476 105.824 54.0952C105.938 53.9429 106 53.7949 106.008 53.6514L106.355 54.0425C106.335 54.1655 106.279 54.3018 106.188 54.4512C106.098 54.6006 105.976 54.7441 105.824 54.8818C105.674 55.0166 105.496 55.1294 105.288 55.2202C105.083 55.3081 104.851 55.3521 104.593 55.3521C104.271 55.3521 103.988 55.2891 103.745 55.1631C103.505 55.0371 103.317 54.8687 103.183 54.6577C103.051 54.4438 102.985 54.2051 102.985 53.9414C102.985 53.6865 103.035 53.4624 103.134 53.269C103.234 53.0728 103.377 52.9102 103.565 52.7812C103.752 52.6494 103.978 52.5498 104.242 52.4824C104.505 52.415 104.8 52.3813 105.125 52.3813H106.07ZM108.9 50.5093V55.2642H108.087V50.5093H108.9ZM108.061 49.8149L108.913 48.5229H109.893L108.715 49.8149H108.061ZM113.022 54.0029C113.022 53.8857 112.996 53.7773 112.943 53.6777C112.893 53.5752 112.789 53.4829 112.631 53.4009C112.476 53.3159 112.241 53.2427 111.928 53.1812C111.664 53.1255 111.425 53.0596 111.211 52.9834C111 52.9072 110.82 52.8149 110.671 52.7065C110.524 52.5981 110.412 52.4707 110.333 52.3242C110.253 52.1777 110.214 52.0063 110.214 51.8101C110.214 51.6226 110.255 51.4453 110.337 51.2783C110.422 51.1113 110.541 50.9634 110.693 50.8345C110.848 50.7056 111.034 50.6045 111.251 50.5312C111.468 50.458 111.709 50.4214 111.976 50.4214C112.357 50.4214 112.682 50.4888 112.952 50.6235C113.221 50.7583 113.428 50.9385 113.571 51.1641C113.715 51.3867 113.787 51.6343 113.787 51.9067H112.974C112.974 51.7749 112.934 51.6475 112.855 51.5244C112.779 51.3984 112.666 51.2944 112.517 51.2124C112.37 51.1304 112.19 51.0894 111.976 51.0894C111.75 51.0894 111.567 51.1245 111.427 51.1948C111.289 51.2622 111.188 51.3486 111.124 51.4541C111.062 51.5596 111.031 51.6709 111.031 51.7881C111.031 51.876 111.046 51.9551 111.075 52.0254C111.107 52.0928 111.163 52.1558 111.242 52.2144C111.321 52.27 111.433 52.3228 111.576 52.3726C111.72 52.4224 111.903 52.4722 112.125 52.522C112.515 52.6099 112.836 52.7153 113.088 52.8384C113.34 52.9614 113.527 53.1123 113.65 53.291C113.773 53.4697 113.835 53.6865 113.835 53.9414C113.835 54.1494 113.791 54.3398 113.703 54.5127C113.618 54.6855 113.494 54.835 113.33 54.9609C113.168 55.084 112.975 55.1807 112.75 55.251C112.527 55.3184 112.276 55.3521 111.998 55.3521C111.579 55.3521 111.225 55.2773 110.935 55.1279C110.645 54.9785 110.425 54.7852 110.275 54.5479C110.126 54.3105 110.051 54.0601 110.051 53.7964H110.869C110.88 54.019 110.945 54.1963 111.062 54.3281C111.179 54.457 111.323 54.5493 111.493 54.605C111.663 54.6577 111.831 54.6841 111.998 54.6841C112.221 54.6841 112.407 54.6548 112.556 54.5962C112.708 54.5376 112.824 54.457 112.903 54.3545C112.982 54.252 113.022 54.1348 113.022 54.0029Z" fill="black"/>
<path d="M83.3 34.5625H82.6V28.8619C82.6 28.1922 82.3769 27.5488 81.9831 27.0742L77.6125 21.8061C77.2188 21.3314 76.685 21.0625 76.1294 21.0625H74.2V18.5312C74.2 17.1338 73.2594 16 72.1 16H60.9C59.7406 16 58.8 17.1338 58.8 18.5312V21.0625H56.35C56.1575 21.0625 56 21.2523 56 21.4844V22.3281C56 22.5602 56.1575 22.75 56.35 22.75H68.25C68.4425 22.75 68.6 22.9398 68.6 23.1719V24.0156C68.6 24.2477 68.4425 24.4375 68.25 24.4375H57.75C57.5575 24.4375 57.4 24.6273 57.4 24.8594V25.7031C57.4 25.9352 57.5575 26.125 57.75 26.125H66.85C67.0425 26.125 67.2 26.3148 67.2 26.5469V27.3906C67.2 27.6227 67.0425 27.8125 66.85 27.8125H56.35C56.1575 27.8125 56 28.0023 56 28.2344V29.0781C56 29.3102 56.1575 29.5 56.35 29.5H65.45C65.6425 29.5 65.8 29.6898 65.8 29.9219V30.7656C65.8 30.9977 65.6425 31.1875 65.45 31.1875H58.8V37.9375C58.8 40.7324 60.6813 43 63 43C65.3187 43 67.2 40.7324 67.2 37.9375H72.8C72.8 40.7324 74.6812 43 77 43C79.3188 43 81.2 40.7324 81.2 37.9375H83.3C83.685 37.9375 84 37.5578 84 37.0938V35.4062C84 34.9422 83.685 34.5625 83.3 34.5625ZM63 40.4688C61.8406 40.4688 60.9 39.335 60.9 37.9375C60.9 36.54 61.8406 35.4062 63 35.4062C64.1594 35.4062 65.1 36.54 65.1 37.9375C65.1 39.335 64.1594 40.4688 63 40.4688ZM77 40.4688C75.8406 40.4688 74.9 39.335 74.9 37.9375C74.9 36.54 75.8406 35.4062 77 35.4062C78.1594 35.4062 79.1 36.54 79.1 37.9375C79.1 39.335 78.1594 40.4688 77 40.4688ZM80.5 29.5H74.2V23.5938H76.1294L80.5 28.8619V29.5Z" fill="black"/>
<path d="M194.5 30.1665H196.25V33.4565L199.097 35.1015L198.222 36.6182L194.5 34.4715V30.1665ZM199.167 24.3332H182.833V37.1665H188.282C187.78 36.1048 187.5 34.9148 187.5 33.6665C187.5 31.5006 188.36 29.4233 189.892 27.8918C191.424 26.3603 193.501 25.4998 195.667 25.4998C196.915 25.4998 198.105 25.7798 199.167 26.2815V24.3332ZM182.833 39.4998C182.214 39.4998 181.621 39.254 181.183 38.8164C180.746 38.3788 180.5 37.7853 180.5 37.1665V20.8332C180.5 19.5382 181.538 18.4998 182.833 18.4998H184V16.1665H186.333V18.4998H195.667V16.1665H198V18.4998H199.167C199.786 18.4998 200.379 18.7457 200.817 19.1833C201.254 19.6208 201.5 20.2143 201.5 20.8332V27.9498C202.947 29.4198 203.833 31.4382 203.833 33.6665C203.833 35.8324 202.973 37.9097 201.441 39.4412C199.91 40.9728 197.833 41.8332 195.667 41.8332C193.438 41.8332 191.42 40.9465 189.95 39.4998H182.833ZM195.667 28.0082C194.166 28.0082 192.727 28.6043 191.666 29.6655C190.604 30.7266 190.008 32.1658 190.008 33.6665C190.008 36.7932 192.54 39.3248 195.667 39.3248C196.41 39.3248 197.146 39.1785 197.832 38.8941C198.519 38.6098 199.142 38.193 199.668 37.6675C200.193 37.1421 200.61 36.5184 200.894 35.8319C201.179 35.1454 201.325 34.4096 201.325 33.6665C201.325 30.5398 198.793 28.0082 195.667 28.0082Z" fill="black"/>
<path d="M316.167 37.1665C316.167 36.7698 316.213 36.3848 316.272 35.9998H304.5V28.9998H323.167V30.1665C323.983 30.1665 324.765 30.3182 325.5 30.5748V21.9998C325.5 20.7048 324.462 19.6665 323.167 19.6665H304.5C303.205 19.6665 302.167 20.7048 302.167 21.9998V35.9998C302.167 36.6187 302.413 37.2122 302.85 37.6498C303.288 38.0873 303.881 38.3332 304.5 38.3332H316.272C316.213 37.9482 316.167 37.5632 316.167 37.1665ZM304.5 21.9998H323.167V24.3332H304.5V21.9998ZM321.708 40.6665L318.5 37.1665L319.853 35.8132L321.708 37.6682L325.897 33.4798L327.25 35.1248L321.708 40.6665Z" fill="black"/>
<defs>
<filter id="filter0_d_414_286" x="0" y="0" width="383" height="72" filterUnits="userSpaceOnUse" color-interpolation-filters="sRGB">
<feFlood flood-opacity="0" result="BackgroundImageFix"/>
<feColorMatrix in="SourceAlpha" type="matrix" values="0 0 0 0 0 0 0 0 0 0 0 0 0 0 0 0 0 0 127 0" result="hardAlpha"/>
<feOffset dy="1"/>
<feGaussianBlur stdDeviation="2"/>
<feComposite in2="hardAlpha" operator="out"/>
<feColorMatrix type="matrix" values="0 0 0 0 0 0 0 0 0 0 0 0 0 0 0 0 0 0 0.25 0"/>
<feBlend mode="normal" in2="BackgroundImageFix" result="effect1_dropShadow_414_286"/>
<feBlend mode="normal" in="SourceGraphic" in2="effect1_dropShadow_414_286" result="shape"/>
</filter>
</defs>
</svg>
