<svg width="1400" height="320" viewBox="0 0 1400 320" fill="none" xmlns="http://www.w3.org/2000/svg">
<rect width="1400" height="320" fill="url(#paint0_radial_756_2064)"/>
<path d="M527.25 144H517.156L517.219 135.562H527.25C529.333 135.562 531.094 135.062 532.531 134.062C533.99 133.062 535.094 131.573 535.844 129.594C536.615 127.594 537 125.135 537 122.219V120.25C537 118.062 536.781 116.146 536.344 114.5C535.927 112.833 535.302 111.448 534.469 110.344C533.635 109.219 532.594 108.375 531.344 107.812C530.115 107.25 528.698 106.969 527.094 106.969H516.969V98.5H527.094C530.177 98.5 533 99.0312 535.562 100.094C538.146 101.135 540.375 102.635 542.25 104.594C544.146 106.531 545.604 108.833 546.625 111.5C547.667 114.146 548.188 117.083 548.188 120.312V122.219C548.188 125.427 547.667 128.365 546.625 131.031C545.604 133.698 544.156 136 542.281 137.938C540.406 139.875 538.188 141.375 535.625 142.438C533.083 143.479 530.292 144 527.25 144ZM523.438 98.5V144H512.469V98.5H523.438ZM585.219 135.562V144H560.969V135.562H585.219ZM564.875 98.5V144H553.906V98.5H564.875ZM582.094 116.562V124.719H560.969V116.562H582.094ZM585.312 98.5V106.969H560.969V98.5H585.312ZM613.156 131.906C613.156 131.198 613.052 130.562 612.844 130C612.635 129.417 612.25 128.875 611.688 128.375C611.125 127.875 610.312 127.375 609.25 126.875C608.208 126.354 606.833 125.812 605.125 125.25C603.125 124.583 601.198 123.833 599.344 123C597.49 122.146 595.833 121.156 594.375 120.031C592.917 118.885 591.76 117.552 590.906 116.031C590.052 114.49 589.625 112.698 589.625 110.656C589.625 108.698 590.062 106.938 590.938 105.375C591.812 103.792 593.031 102.448 594.594 101.344C596.177 100.219 598.031 99.3646 600.156 98.7812C602.281 98.1771 604.604 97.875 607.125 97.875C610.458 97.875 613.396 98.4583 615.938 99.625C618.5 100.771 620.5 102.406 621.938 104.531C623.396 106.635 624.125 109.125 624.125 112H613.219C613.219 110.854 612.979 109.844 612.5 108.969C612.042 108.094 611.344 107.406 610.406 106.906C609.469 106.406 608.292 106.156 606.875 106.156C605.5 106.156 604.344 106.365 603.406 106.781C602.469 107.198 601.76 107.76 601.281 108.469C600.802 109.156 600.562 109.917 600.562 110.75C600.562 111.438 600.75 112.062 601.125 112.625C601.521 113.167 602.073 113.677 602.781 114.156C603.51 114.635 604.385 115.094 605.406 115.531C606.448 115.969 607.615 116.396 608.906 116.812C611.323 117.583 613.469 118.448 615.344 119.406C617.24 120.344 618.833 121.417 620.125 122.625C621.438 123.812 622.427 125.167 623.094 126.688C623.781 128.208 624.125 129.927 624.125 131.844C624.125 133.885 623.729 135.698 622.938 137.281C622.146 138.865 621.01 140.208 619.531 141.312C618.052 142.396 616.281 143.219 614.219 143.781C612.156 144.344 609.854 144.625 607.312 144.625C604.979 144.625 602.677 144.333 600.406 143.75C598.156 143.146 596.115 142.229 594.281 141C592.448 139.75 590.979 138.156 589.875 136.219C588.792 134.26 588.25 131.938 588.25 129.25H599.25C599.25 130.583 599.427 131.708 599.781 132.625C600.135 133.542 600.656 134.281 601.344 134.844C602.031 135.385 602.875 135.781 603.875 136.031C604.875 136.26 606.021 136.375 607.312 136.375C608.708 136.375 609.833 136.177 610.688 135.781C611.542 135.365 612.167 134.823 612.562 134.156C612.958 133.469 613.156 132.719 613.156 131.906ZM655.656 128.594H666.594C666.448 131.76 665.594 134.552 664.031 136.969C662.469 139.385 660.302 141.271 657.531 142.625C654.781 143.958 651.531 144.625 647.781 144.625C644.74 144.625 642.021 144.115 639.625 143.094C637.25 142.073 635.229 140.604 633.562 138.688C631.917 136.771 630.656 134.448 629.781 131.719C628.927 128.99 628.5 125.917 628.5 122.5V120.031C628.5 116.615 628.948 113.542 629.844 110.812C630.76 108.062 632.052 105.729 633.719 103.812C635.406 101.875 637.427 100.396 639.781 99.375C642.135 98.3542 644.75 97.8438 647.625 97.8438C651.583 97.8438 654.927 98.5521 657.656 99.9688C660.385 101.385 662.5 103.333 664 105.812C665.5 108.271 666.385 111.073 666.656 114.219H655.719C655.677 112.51 655.385 111.083 654.844 109.938C654.302 108.771 653.448 107.896 652.281 107.312C651.115 106.729 649.562 106.438 647.625 106.438C646.271 106.438 645.094 106.688 644.094 107.188C643.094 107.688 642.26 108.479 641.594 109.562C640.927 110.646 640.427 112.052 640.094 113.781C639.781 115.49 639.625 117.552 639.625 119.969V122.5C639.625 124.917 639.771 126.979 640.062 128.688C640.354 130.396 640.823 131.792 641.469 132.875C642.115 133.958 642.948 134.76 643.969 135.281C645.01 135.781 646.281 136.031 647.781 136.031C649.448 136.031 650.854 135.771 652 135.25C653.146 134.708 654.031 133.896 654.656 132.812C655.281 131.708 655.615 130.302 655.656 128.594ZM696.469 98.5H707.438V128.219C707.438 131.76 706.698 134.76 705.219 137.219C703.74 139.656 701.667 141.5 699 142.75C696.333 144 693.198 144.625 689.594 144.625C686.031 144.625 682.896 144 680.188 142.75C677.5 141.5 675.396 139.656 673.875 137.219C672.375 134.76 671.625 131.76 671.625 128.219V98.5H682.625V128.219C682.625 130.094 682.896 131.625 683.438 132.812C683.979 133.979 684.771 134.833 685.812 135.375C686.854 135.917 688.115 136.188 689.594 136.188C691.094 136.188 692.354 135.917 693.375 135.375C694.396 134.833 695.167 133.979 695.688 132.812C696.208 131.625 696.469 130.094 696.469 128.219V98.5ZM745.656 135.562V144H721.406V135.562H745.656ZM725.312 98.5V144H714.344V98.5H725.312ZM742.531 116.562V124.719H721.406V116.562H742.531ZM745.75 98.5V106.969H721.406V98.5H745.75ZM788.156 98.5V144H777.219L761.125 115.688V144H750.156V98.5H761.125L777.219 126.812V98.5H788.156ZM816.188 98.5V144H805.219V98.5H816.188ZM829.875 98.5V106.969H791.844V98.5H829.875ZM872.156 120.344V122.188C872.156 125.667 871.667 128.792 870.688 131.562C869.729 134.312 868.365 136.667 866.594 138.625C864.823 140.562 862.729 142.052 860.312 143.094C857.896 144.115 855.229 144.625 852.312 144.625C849.375 144.625 846.688 144.115 844.25 143.094C841.833 142.052 839.729 140.562 837.938 138.625C836.167 136.667 834.792 134.312 833.812 131.562C832.854 128.792 832.375 125.667 832.375 122.188V120.344C832.375 116.865 832.854 113.74 833.812 110.969C834.792 108.198 836.156 105.844 837.906 103.906C839.677 101.948 841.771 100.458 844.188 99.4375C846.625 98.3958 849.312 97.875 852.25 97.875C855.167 97.875 857.833 98.3958 860.25 99.4375C862.688 100.458 864.792 101.948 866.562 103.906C868.333 105.844 869.708 108.198 870.688 110.969C871.667 113.74 872.156 116.865 872.156 120.344ZM861.031 122.188V120.281C861.031 118.031 860.833 116.052 860.438 114.344C860.062 112.615 859.5 111.167 858.75 110C858 108.833 857.073 107.958 855.969 107.375C854.885 106.771 853.646 106.469 852.25 106.469C850.792 106.469 849.521 106.771 848.438 107.375C847.354 107.958 846.448 108.833 845.719 110C844.99 111.167 844.438 112.615 844.062 114.344C843.708 116.052 843.531 118.031 843.531 120.281V122.188C843.531 124.417 843.708 126.396 844.062 128.125C844.438 129.833 844.99 131.281 845.719 132.469C846.469 133.656 847.385 134.552 848.469 135.156C849.573 135.76 850.854 136.062 852.312 136.062C853.708 136.062 854.948 135.76 856.031 135.156C857.115 134.552 858.021 133.656 858.75 132.469C859.5 131.281 860.062 129.833 860.438 128.125C860.833 126.396 861.031 124.417 861.031 122.188ZM531.031 199.656H519.312L519.25 192.469H528.75C530.458 192.469 531.823 192.281 532.844 191.906C533.865 191.51 534.604 190.938 535.062 190.188C535.542 189.438 535.781 188.5 535.781 187.375C535.781 186.083 535.542 185.042 535.062 184.25C534.583 183.458 533.823 182.885 532.781 182.531C531.76 182.156 530.438 181.969 528.812 181.969H523.438V219H512.469V173.5H528.812C531.625 173.5 534.135 173.76 536.344 174.281C538.552 174.781 540.427 175.552 541.969 176.594C543.531 177.635 544.719 178.948 545.531 180.531C546.344 182.094 546.75 183.938 546.75 186.062C546.75 187.917 546.354 189.656 545.562 191.281C544.771 192.906 543.448 194.229 541.594 195.25C539.76 196.25 537.25 196.771 534.062 196.812L531.031 199.656ZM530.594 219H516.656L520.406 210.562H530.594C532.094 210.562 533.292 210.333 534.188 209.875C535.104 209.396 535.76 208.771 536.156 208C536.573 207.208 536.781 206.333 536.781 205.375C536.781 204.208 536.583 203.198 536.188 202.344C535.812 201.49 535.208 200.833 534.375 200.375C533.542 199.896 532.427 199.656 531.031 199.656H521.812L521.875 192.469H532.906L535.469 195.344C538.51 195.219 540.917 195.646 542.688 196.625C544.479 197.604 545.76 198.896 546.531 200.5C547.302 202.104 547.688 203.781 547.688 205.531C547.688 208.51 547.042 211 545.75 213C544.479 215 542.573 216.5 540.031 217.5C537.49 218.5 534.344 219 530.594 219ZM565.438 173.5V219H554.5V173.5H565.438ZM604.469 210.562V219H580.219V210.562H604.469ZM584.125 173.5V219H573.156V173.5H584.125ZM601.344 191.562V199.719H580.219V191.562H601.344ZM604.562 173.5V181.969H580.219V173.5H604.562ZM646.969 173.5V219H636.031L619.938 190.688V219H608.969V173.5H619.938L636.031 201.812V173.5H646.969ZM671.125 208.281L680.594 173.5H692.875L677.531 219H669.594L671.125 208.281ZM662.531 173.5L672 208.281L673.594 219H665.562L650.312 173.5H662.531ZM727.531 210.562V219H703.281V210.562H727.531ZM707.188 173.5V219H696.219V173.5H707.188ZM724.406 191.562V199.719H703.281V191.562H724.406ZM727.625 173.5V181.969H703.281V173.5H727.625ZM770.031 173.5V219H759.094L743 190.688V219H732.031V173.5H743L759.094 201.812V173.5H770.031ZM788.625 173.5V219H777.688V173.5H788.625ZM811.125 219H801.031L801.094 210.562H811.125C813.208 210.562 814.969 210.062 816.406 209.062C817.865 208.062 818.969 206.573 819.719 204.594C820.49 202.594 820.875 200.135 820.875 197.219V195.25C820.875 193.062 820.656 191.146 820.219 189.5C819.802 187.833 819.177 186.448 818.344 185.344C817.51 184.219 816.469 183.375 815.219 182.812C813.99 182.25 812.573 181.969 810.969 181.969H800.844V173.5H810.969C814.052 173.5 816.875 174.031 819.438 175.094C822.021 176.135 824.25 177.635 826.125 179.594C828.021 181.531 829.479 183.833 830.5 186.5C831.542 189.146 832.062 192.083 832.062 195.312V197.219C832.062 200.427 831.542 203.365 830.5 206.031C829.479 208.698 828.031 211 826.156 212.938C824.281 214.875 822.062 216.375 819.5 217.438C816.958 218.479 814.167 219 811.125 219ZM807.312 173.5V219H796.344V173.5H807.312ZM856.375 183.062L845.281 219H833.5L850.219 173.5H857.688L856.375 183.062ZM865.562 219L854.438 183.062L853 173.5H860.562L877.375 219H865.562ZM865.125 202.031V210.5H841.781V202.031H865.125Z" fill="black"/>
<defs>
<radialGradient id="paint0_radial_756_2064" cx="0" cy="0" r="1" gradientUnits="userSpaceOnUse" gradientTransform="translate(700 160) rotate(90) scale(160 700)">
<stop stop-color="white"/>
<stop offset="1" stop-color="#FFD263"/>
</radialGradient>
</defs>
</svg>
