<svg width="1400" height="320" viewBox="0 0 1400 320" fill="none" xmlns="http://www.w3.org/2000/svg">
<rect width="1400" height="320" fill="#B6A8FF"/>
<path d="M580.156 128.562H568.844V120.094H580.156C581.698 120.094 582.948 119.833 583.906 119.312C584.865 118.792 585.562 118.073 586 117.156C586.458 116.219 586.688 115.167 586.688 114C586.688 112.75 586.458 111.594 586 110.531C585.562 109.469 584.865 108.615 583.906 107.969C582.948 107.302 581.698 106.969 580.156 106.969H572.969V144H562V98.5H580.156C583.802 98.5 586.938 99.1667 589.562 100.5C592.208 101.833 594.24 103.667 595.656 106C597.073 108.312 597.781 110.958 597.781 113.938C597.781 116.875 597.073 119.438 595.656 121.625C594.24 123.812 592.208 125.521 589.562 126.75C586.938 127.958 583.802 128.562 580.156 128.562ZM603.688 98.5H621.594C625.094 98.5 628.135 99.0208 630.719 100.062C633.302 101.104 635.292 102.646 636.688 104.688C638.104 106.729 638.812 109.25 638.812 112.25C638.812 114.854 638.406 117.031 637.594 118.781C636.781 120.531 635.646 121.979 634.188 123.125C632.75 124.25 631.073 125.177 629.156 125.906L625.562 127.938H610.531L610.469 119.469H621.594C622.99 119.469 624.146 119.219 625.062 118.719C625.979 118.219 626.667 117.51 627.125 116.594C627.604 115.656 627.844 114.542 627.844 113.25C627.844 111.938 627.604 110.812 627.125 109.875C626.646 108.938 625.938 108.219 625 107.719C624.083 107.219 622.948 106.969 621.594 106.969H614.656V144H603.688V98.5ZM628.594 144L618.531 123.875L630.156 123.812L640.344 143.531V144H628.594ZM683.938 120.344V122.188C683.938 125.667 683.448 128.792 682.469 131.562C681.51 134.312 680.146 136.667 678.375 138.625C676.604 140.562 674.51 142.052 672.094 143.094C669.677 144.115 667.01 144.625 664.094 144.625C661.156 144.625 658.469 144.115 656.031 143.094C653.615 142.052 651.51 140.562 649.719 138.625C647.948 136.667 646.573 134.312 645.594 131.562C644.635 128.792 644.156 125.667 644.156 122.188V120.344C644.156 116.865 644.635 113.74 645.594 110.969C646.573 108.198 647.938 105.844 649.688 103.906C651.458 101.948 653.552 100.458 655.969 99.4375C658.406 98.3958 661.094 97.875 664.031 97.875C666.948 97.875 669.615 98.3958 672.031 99.4375C674.469 100.458 676.573 101.948 678.344 103.906C680.115 105.844 681.49 108.198 682.469 110.969C683.448 113.74 683.938 116.865 683.938 120.344ZM672.812 122.188V120.281C672.812 118.031 672.615 116.052 672.219 114.344C671.844 112.615 671.281 111.167 670.531 110C669.781 108.833 668.854 107.958 667.75 107.375C666.667 106.771 665.427 106.469 664.031 106.469C662.573 106.469 661.302 106.771 660.219 107.375C659.135 107.958 658.229 108.833 657.5 110C656.771 111.167 656.219 112.615 655.844 114.344C655.49 116.052 655.312 118.031 655.312 120.281V122.188C655.312 124.417 655.49 126.396 655.844 128.125C656.219 129.833 656.771 131.281 657.5 132.469C658.25 133.656 659.167 134.552 660.25 135.156C661.354 135.76 662.635 136.062 664.094 136.062C665.49 136.062 666.729 135.76 667.812 135.156C668.896 134.552 669.802 133.656 670.531 132.469C671.281 131.281 671.844 129.833 672.219 128.125C672.615 126.396 672.812 124.417 672.812 122.188ZM695.062 98.5H704L714.156 130.156L724.312 98.5H733.25L717.781 144H710.531L695.062 98.5ZM689.625 98.5H698.875L700.594 133.375V144H689.625V98.5ZM729.438 98.5H738.719V144H727.719V133.375L729.438 98.5ZM784.25 120.344V122.188C784.25 125.667 783.76 128.792 782.781 131.562C781.823 134.312 780.458 136.667 778.688 138.625C776.917 140.562 774.823 142.052 772.406 143.094C769.99 144.115 767.323 144.625 764.406 144.625C761.469 144.625 758.781 144.115 756.344 143.094C753.927 142.052 751.823 140.562 750.031 138.625C748.26 136.667 746.885 134.312 745.906 131.562C744.948 128.792 744.469 125.667 744.469 122.188V120.344C744.469 116.865 744.948 113.74 745.906 110.969C746.885 108.198 748.25 105.844 750 103.906C751.771 101.948 753.865 100.458 756.281 99.4375C758.719 98.3958 761.406 97.875 764.344 97.875C767.26 97.875 769.927 98.3958 772.344 99.4375C774.781 100.458 776.885 101.948 778.656 103.906C780.427 105.844 781.802 108.198 782.781 110.969C783.76 113.74 784.25 116.865 784.25 120.344ZM773.125 122.188V120.281C773.125 118.031 772.927 116.052 772.531 114.344C772.156 112.615 771.594 111.167 770.844 110C770.094 108.833 769.167 107.958 768.062 107.375C766.979 106.771 765.74 106.469 764.344 106.469C762.885 106.469 761.615 106.771 760.531 107.375C759.448 107.958 758.542 108.833 757.812 110C757.083 111.167 756.531 112.615 756.156 114.344C755.802 116.052 755.625 118.031 755.625 120.281V122.188C755.625 124.417 755.802 126.396 756.156 128.125C756.531 129.833 757.083 131.281 757.812 132.469C758.562 133.656 759.479 134.552 760.562 135.156C761.667 135.76 762.948 136.062 764.406 136.062C765.802 136.062 767.042 135.76 768.125 135.156C769.208 134.552 770.115 133.656 770.844 132.469C771.594 131.281 772.156 129.833 772.531 128.125C772.927 126.396 773.125 124.417 773.125 122.188ZM813.375 131.906C813.375 131.198 813.271 130.562 813.062 130C812.854 129.417 812.469 128.875 811.906 128.375C811.344 127.875 810.531 127.375 809.469 126.875C808.427 126.354 807.052 125.812 805.344 125.25C803.344 124.583 801.417 123.833 799.562 123C797.708 122.146 796.052 121.156 794.594 120.031C793.135 118.885 791.979 117.552 791.125 116.031C790.271 114.49 789.844 112.698 789.844 110.656C789.844 108.698 790.281 106.938 791.156 105.375C792.031 103.792 793.25 102.448 794.812 101.344C796.396 100.219 798.25 99.3646 800.375 98.7812C802.5 98.1771 804.823 97.875 807.344 97.875C810.677 97.875 813.615 98.4583 816.156 99.625C818.719 100.771 820.719 102.406 822.156 104.531C823.615 106.635 824.344 109.125 824.344 112H813.438C813.438 110.854 813.198 109.844 812.719 108.969C812.26 108.094 811.562 107.406 810.625 106.906C809.688 106.406 808.51 106.156 807.094 106.156C805.719 106.156 804.562 106.365 803.625 106.781C802.688 107.198 801.979 107.76 801.5 108.469C801.021 109.156 800.781 109.917 800.781 110.75C800.781 111.438 800.969 112.062 801.344 112.625C801.74 113.167 802.292 113.677 803 114.156C803.729 114.635 804.604 115.094 805.625 115.531C806.667 115.969 807.833 116.396 809.125 116.812C811.542 117.583 813.688 118.448 815.562 119.406C817.458 120.344 819.052 121.417 820.344 122.625C821.656 123.812 822.646 125.167 823.312 126.688C824 128.208 824.344 129.927 824.344 131.844C824.344 133.885 823.948 135.698 823.156 137.281C822.365 138.865 821.229 140.208 819.75 141.312C818.271 142.396 816.5 143.219 814.438 143.781C812.375 144.344 810.073 144.625 807.531 144.625C805.198 144.625 802.896 144.333 800.625 143.75C798.375 143.146 796.333 142.229 794.5 141C792.667 139.75 791.198 138.156 790.094 136.219C789.01 134.26 788.469 131.938 788.469 129.25H799.469C799.469 130.583 799.646 131.708 800 132.625C800.354 133.542 800.875 134.281 801.562 134.844C802.25 135.385 803.094 135.781 804.094 136.031C805.094 136.26 806.24 136.375 807.531 136.375C808.927 136.375 810.052 136.177 810.906 135.781C811.76 135.365 812.385 134.823 812.781 134.156C813.177 133.469 813.375 132.719 813.375 131.906ZM462.844 203.562H451.531V195.094H462.844C464.385 195.094 465.635 194.833 466.594 194.312C467.552 193.792 468.25 193.073 468.688 192.156C469.146 191.219 469.375 190.167 469.375 189C469.375 187.75 469.146 186.594 468.688 185.531C468.25 184.469 467.552 183.615 466.594 182.969C465.635 182.302 464.385 181.969 462.844 181.969H455.656V219H444.688V173.5H462.844C466.49 173.5 469.625 174.167 472.25 175.5C474.896 176.833 476.927 178.667 478.344 181C479.76 183.312 480.469 185.958 480.469 188.938C480.469 191.875 479.76 194.438 478.344 196.625C476.927 198.812 474.896 200.521 472.25 201.75C469.625 202.958 466.49 203.562 462.844 203.562ZM517.688 210.562V219H493.438V210.562H517.688ZM497.344 173.5V219H486.375V173.5H497.344ZM514.562 191.562V199.719H493.438V191.562H514.562ZM517.781 173.5V181.969H493.438V173.5H517.781ZM522.188 173.5H540.094C543.594 173.5 546.635 174.021 549.219 175.062C551.802 176.104 553.792 177.646 555.188 179.688C556.604 181.729 557.312 184.25 557.312 187.25C557.312 189.854 556.906 192.031 556.094 193.781C555.281 195.531 554.146 196.979 552.688 198.125C551.25 199.25 549.573 200.177 547.656 200.906L544.062 202.938H529.031L528.969 194.469H540.094C541.49 194.469 542.646 194.219 543.562 193.719C544.479 193.219 545.167 192.51 545.625 191.594C546.104 190.656 546.344 189.542 546.344 188.25C546.344 186.938 546.104 185.812 545.625 184.875C545.146 183.938 544.438 183.219 543.5 182.719C542.583 182.219 541.448 181.969 540.094 181.969H533.156V219H522.188V173.5ZM547.094 219L537.031 198.875L548.656 198.812L558.844 218.531V219H547.094ZM563.938 173.5H581.844C585.344 173.5 588.385 174.021 590.969 175.062C593.552 176.104 595.542 177.646 596.938 179.688C598.354 181.729 599.062 184.25 599.062 187.25C599.062 189.854 598.656 192.031 597.844 193.781C597.031 195.531 595.896 196.979 594.438 198.125C593 199.25 591.323 200.177 589.406 200.906L585.812 202.938H570.781L570.719 194.469H581.844C583.24 194.469 584.396 194.219 585.312 193.719C586.229 193.219 586.917 192.51 587.375 191.594C587.854 190.656 588.094 189.542 588.094 188.25C588.094 186.938 587.854 185.812 587.375 184.875C586.896 183.938 586.188 183.219 585.25 182.719C584.333 182.219 583.198 181.969 581.844 181.969H574.906V219H563.938V173.5ZM588.844 219L578.781 198.875L590.406 198.812L600.594 218.531V219H588.844ZM644.188 195.344V197.188C644.188 200.667 643.698 203.792 642.719 206.562C641.76 209.312 640.396 211.667 638.625 213.625C636.854 215.562 634.76 217.052 632.344 218.094C629.927 219.115 627.26 219.625 624.344 219.625C621.406 219.625 618.719 219.115 616.281 218.094C613.865 217.052 611.76 215.562 609.969 213.625C608.198 211.667 606.823 209.312 605.844 206.562C604.885 203.792 604.406 200.667 604.406 197.188V195.344C604.406 191.865 604.885 188.74 605.844 185.969C606.823 183.198 608.188 180.844 609.938 178.906C611.708 176.948 613.802 175.458 616.219 174.438C618.656 173.396 621.344 172.875 624.281 172.875C627.198 172.875 629.865 173.396 632.281 174.438C634.719 175.458 636.823 176.948 638.594 178.906C640.365 180.844 641.74 183.198 642.719 185.969C643.698 188.74 644.188 191.865 644.188 195.344ZM633.062 197.188V195.281C633.062 193.031 632.865 191.052 632.469 189.344C632.094 187.615 631.531 186.167 630.781 185C630.031 183.833 629.104 182.958 628 182.375C626.917 181.771 625.677 181.469 624.281 181.469C622.823 181.469 621.552 181.771 620.469 182.375C619.385 182.958 618.479 183.833 617.75 185C617.021 186.167 616.469 187.615 616.094 189.344C615.74 191.052 615.562 193.031 615.562 195.281V197.188C615.562 199.417 615.74 201.396 616.094 203.125C616.469 204.833 617.021 206.281 617.75 207.469C618.5 208.656 619.417 209.552 620.5 210.156C621.604 210.76 622.885 211.062 624.344 211.062C625.74 211.062 626.979 210.76 628.062 210.156C629.146 209.552 630.052 208.656 630.781 207.469C631.531 206.281 632.094 204.833 632.469 203.125C632.865 201.396 633.062 199.417 633.062 197.188ZM673.312 206.906C673.312 206.198 673.208 205.562 673 205C672.792 204.417 672.406 203.875 671.844 203.375C671.281 202.875 670.469 202.375 669.406 201.875C668.365 201.354 666.99 200.812 665.281 200.25C663.281 199.583 661.354 198.833 659.5 198C657.646 197.146 655.99 196.156 654.531 195.031C653.073 193.885 651.917 192.552 651.062 191.031C650.208 189.49 649.781 187.698 649.781 185.656C649.781 183.698 650.219 181.938 651.094 180.375C651.969 178.792 653.188 177.448 654.75 176.344C656.333 175.219 658.188 174.365 660.312 173.781C662.438 173.177 664.76 172.875 667.281 172.875C670.615 172.875 673.552 173.458 676.094 174.625C678.656 175.771 680.656 177.406 682.094 179.531C683.552 181.635 684.281 184.125 684.281 187H673.375C673.375 185.854 673.135 184.844 672.656 183.969C672.198 183.094 671.5 182.406 670.562 181.906C669.625 181.406 668.448 181.156 667.031 181.156C665.656 181.156 664.5 181.365 663.562 181.781C662.625 182.198 661.917 182.76 661.438 183.469C660.958 184.156 660.719 184.917 660.719 185.75C660.719 186.438 660.906 187.062 661.281 187.625C661.677 188.167 662.229 188.677 662.938 189.156C663.667 189.635 664.542 190.094 665.562 190.531C666.604 190.969 667.771 191.396 669.062 191.812C671.479 192.583 673.625 193.448 675.5 194.406C677.396 195.344 678.99 196.417 680.281 197.625C681.594 198.812 682.583 200.167 683.25 201.688C683.938 203.208 684.281 204.927 684.281 206.844C684.281 208.885 683.885 210.698 683.094 212.281C682.302 213.865 681.167 215.208 679.688 216.312C678.208 217.396 676.438 218.219 674.375 218.781C672.312 219.344 670.01 219.625 667.469 219.625C665.135 219.625 662.833 219.333 660.562 218.75C658.312 218.146 656.271 217.229 654.438 216C652.604 214.75 651.135 213.156 650.031 211.219C648.948 209.26 648.406 206.938 648.406 204.25H659.406C659.406 205.583 659.583 206.708 659.938 207.625C660.292 208.542 660.812 209.281 661.5 209.844C662.188 210.385 663.031 210.781 664.031 211.031C665.031 211.26 666.177 211.375 667.469 211.375C668.865 211.375 669.99 211.177 670.844 210.781C671.698 210.365 672.323 209.823 672.719 209.156C673.115 208.469 673.312 207.719 673.312 206.906ZM735 193.188V202.219H703.812V193.188H735ZM724.375 181.312V214.438H714.531V181.312H724.375ZM793.219 194.688V213.375C792.448 214.229 791.26 215.146 789.656 216.125C788.073 217.083 786.073 217.906 783.656 218.594C781.24 219.281 778.396 219.625 775.125 219.625C772.104 219.625 769.365 219.146 766.906 218.188C764.448 217.208 762.333 215.781 760.562 213.906C758.812 212.01 757.458 209.698 756.5 206.969C755.562 204.219 755.094 201.073 755.094 197.531V195C755.094 191.458 755.573 188.312 756.531 185.562C757.49 182.812 758.833 180.5 760.562 178.625C762.312 176.729 764.365 175.292 766.719 174.312C769.094 173.333 771.698 172.844 774.531 172.844C778.719 172.844 782.125 173.51 784.75 174.844C787.375 176.156 789.365 177.979 790.719 180.312C792.073 182.625 792.896 185.302 793.188 188.344H782.656C782.448 186.844 782.052 185.573 781.469 184.531C780.906 183.469 780.094 182.667 779.031 182.125C777.969 181.562 776.594 181.281 774.906 181.281C773.594 181.281 772.396 181.562 771.312 182.125C770.25 182.688 769.344 183.542 768.594 184.688C767.844 185.812 767.26 187.229 766.844 188.938C766.448 190.646 766.25 192.646 766.25 194.938V197.531C766.25 199.802 766.438 201.792 766.812 203.5C767.208 205.208 767.792 206.635 768.562 207.781C769.354 208.906 770.354 209.76 771.562 210.344C772.792 210.906 774.24 211.188 775.906 211.188C777.073 211.188 778.073 211.094 778.906 210.906C779.74 210.698 780.427 210.448 780.969 210.156C781.531 209.844 781.958 209.552 782.25 209.281V202.219H774.625V194.688H793.219ZM818.906 183.062L807.812 219H796.031L812.75 173.5H820.219L818.906 183.062ZM828.094 219L816.969 183.062L815.531 173.5H823.094L839.906 219H828.094ZM827.656 202.031V210.5H804.312V202.031H827.656ZM861.531 173.5V219H850.562V173.5H861.531ZM875.219 173.5V181.969H837.188V173.5H875.219ZM917.5 195.344V197.188C917.5 200.667 917.01 203.792 916.031 206.562C915.073 209.312 913.708 211.667 911.938 213.625C910.167 215.562 908.073 217.052 905.656 218.094C903.24 219.115 900.573 219.625 897.656 219.625C894.719 219.625 892.031 219.115 889.594 218.094C887.177 217.052 885.073 215.562 883.281 213.625C881.51 211.667 880.135 209.312 879.156 206.562C878.198 203.792 877.719 200.667 877.719 197.188V195.344C877.719 191.865 878.198 188.74 879.156 185.969C880.135 183.198 881.5 180.844 883.25 178.906C885.021 176.948 887.115 175.458 889.531 174.438C891.969 173.396 894.656 172.875 897.594 172.875C900.51 172.875 903.177 173.396 905.594 174.438C908.031 175.458 910.135 176.948 911.906 178.906C913.677 180.844 915.052 183.198 916.031 185.969C917.01 188.74 917.5 191.865 917.5 195.344ZM906.375 197.188V195.281C906.375 193.031 906.177 191.052 905.781 189.344C905.406 187.615 904.844 186.167 904.094 185C903.344 183.833 902.417 182.958 901.312 182.375C900.229 181.771 898.99 181.469 897.594 181.469C896.135 181.469 894.865 181.771 893.781 182.375C892.698 182.958 891.792 183.833 891.062 185C890.333 186.167 889.781 187.615 889.406 189.344C889.052 191.052 888.875 193.031 888.875 195.281V197.188C888.875 199.417 889.052 201.396 889.406 203.125C889.781 204.833 890.333 206.281 891.062 207.469C891.812 208.656 892.729 209.552 893.812 210.156C894.917 210.76 896.198 211.062 897.656 211.062C899.052 211.062 900.292 210.76 901.375 210.156C902.458 209.552 903.365 208.656 904.094 207.469C904.844 206.281 905.406 204.833 905.781 203.125C906.177 201.396 906.375 199.417 906.375 197.188ZM946.625 206.906C946.625 206.198 946.521 205.562 946.312 205C946.104 204.417 945.719 203.875 945.156 203.375C944.594 202.875 943.781 202.375 942.719 201.875C941.677 201.354 940.302 200.812 938.594 200.25C936.594 199.583 934.667 198.833 932.812 198C930.958 197.146 929.302 196.156 927.844 195.031C926.385 193.885 925.229 192.552 924.375 191.031C923.521 189.49 923.094 187.698 923.094 185.656C923.094 183.698 923.531 181.938 924.406 180.375C925.281 178.792 926.5 177.448 928.062 176.344C929.646 175.219 931.5 174.365 933.625 173.781C935.75 173.177 938.073 172.875 940.594 172.875C943.927 172.875 946.865 173.458 949.406 174.625C951.969 175.771 953.969 177.406 955.406 179.531C956.865 181.635 957.594 184.125 957.594 187H946.688C946.688 185.854 946.448 184.844 945.969 183.969C945.51 183.094 944.812 182.406 943.875 181.906C942.938 181.406 941.76 181.156 940.344 181.156C938.969 181.156 937.812 181.365 936.875 181.781C935.938 182.198 935.229 182.76 934.75 183.469C934.271 184.156 934.031 184.917 934.031 185.75C934.031 186.438 934.219 187.062 934.594 187.625C934.99 188.167 935.542 188.677 936.25 189.156C936.979 189.635 937.854 190.094 938.875 190.531C939.917 190.969 941.083 191.396 942.375 191.812C944.792 192.583 946.938 193.448 948.812 194.406C950.708 195.344 952.302 196.417 953.594 197.625C954.906 198.812 955.896 200.167 956.562 201.688C957.25 203.208 957.594 204.927 957.594 206.844C957.594 208.885 957.198 210.698 956.406 212.281C955.615 213.865 954.479 215.208 953 216.312C951.521 217.396 949.75 218.219 947.688 218.781C945.625 219.344 943.323 219.625 940.781 219.625C938.448 219.625 936.146 219.333 933.875 218.75C931.625 218.146 929.583 217.229 927.75 216C925.917 214.75 924.448 213.156 923.344 211.219C922.26 209.26 921.719 206.938 921.719 204.25H932.719C932.719 205.583 932.896 206.708 933.25 207.625C933.604 208.542 934.125 209.281 934.812 209.844C935.5 210.385 936.344 210.781 937.344 211.031C938.344 211.26 939.49 211.375 940.781 211.375C942.177 211.375 943.302 211.177 944.156 210.781C945.01 210.365 945.635 209.823 946.031 209.156C946.427 208.469 946.625 207.719 946.625 206.906Z" fill="black"/>
</svg>
